999
"DXF R12 Output" (www.mydxf.blogspot.com)
 0 
SECTION
 2 
HEADER
 9 
$ACADVER
 1 
AC1009
 9 
$EXTMIN
 10 
 0 
 20 
 0 
 9 
$EXTMAX
 10 
 8.5 
 20 
 11 
 0 
ENDSEC
 0 
SECTION
 2 
ENTITIES
0
LINE
8
Image
10
0.000688
20
144.498000
11
0.000688
21
288.996000
0
LINE
8
Image
10
0.000688
20
288.996000
11
161.996000
21
288.996000
0
LINE
8
Image
10
161.996000
20
288.996000
11
323.992000
21
288.996000
0
LINE
8
Image
10
323.992000
20
288.996000
11
323.992000
21
144.498000
0
LINE
8
Image
10
323.992000
20
144.498000
11
323.992000
21
0.000390
0
LINE
8
Image
10
323.992000
20
0.000390
11
161.996000
21
0.000390
0
LINE
8
Image
10
161.996000
20
0.000390
11
0.000688
21
0.000390
0
LINE
8
Image
10
0.000688
20
0.000390
11
0.000688
21
144.498000
0
LINE
8
Image
10
99.695600
20
26.808400
11
99.845090
21
27.059270
0
LINE
8
Image
10
99.845090
20
27.059270
11
99.907266
21
27.658120
0
LINE
8
Image
10
99.907266
20
27.658120
11
99.887481
21
28.227236
0
LINE
8
Image
10
99.887481
20
28.227236
11
99.755121
21
28.446818
0
LINE
8
Image
10
99.755121
20
28.446818
11
98.714656
21
27.941398
0
LINE
8
Image
10
98.714656
20
27.941398
11
97.745215
21
27.490398
0
LINE
8
Image
10
97.745215
20
27.490398
11
96.872573
21
27.402068
0
LINE
8
Image
10
96.872573
20
27.402068
11
96.047905
21
27.681917
0
LINE
8
Image
10
96.047905
20
27.681917
11
95.222386
21
28.335453
0
LINE
8
Image
10
95.222386
20
28.335453
11
94.523713
21
29.321155
0
LINE
8
Image
10
94.523713
20
29.321155
11
94.253120
21
30.361163
0
LINE
8
Image
10
94.253120
20
30.361163
11
94.354949
21
31.373631
0
LINE
8
Image
10
94.354949
20
31.373631
11
94.773537
21
32.276714
0
LINE
8
Image
10
94.773537
20
32.276714
11
95.453226
21
32.988566
0
LINE
8
Image
10
95.453226
20
32.988566
11
96.338354
21
33.427342
0
LINE
8
Image
10
96.338354
20
33.427342
11
97.373261
21
33.511196
0
LINE
8
Image
10
97.373261
20
33.511196
11
98.502286
21
33.158283
0
LINE
8
Image
10
98.502286
20
33.158283
11
99.191983
21
32.844330
0
LINE
8
Image
10
99.191983
20
32.844330
11
99.622707
21
32.772368
0
LINE
8
Image
10
99.622707
20
32.772368
11
99.844469
21
32.950536
0
LINE
8
Image
10
99.844469
20
32.950536
11
99.907276
21
33.386976
0
LINE
8
Image
10
99.907276
20
33.386976
11
99.677960
21
33.934761
0
LINE
8
Image
10
99.677960
20
33.934761
11
99.025483
21
34.352979
0
LINE
8
Image
10
99.025483
20
34.352979
11
98.003050
21
34.619867
0
LINE
8
Image
10
98.003050
20
34.619867
11
96.663866
21
34.713666
0
LINE
8
Image
10
96.663866
20
34.713666
11
95.887210
21
34.678796
0
LINE
8
Image
10
95.887210
20
34.678796
11
95.317977
21
34.514433
0
LINE
8
Image
10
95.317977
20
34.514433
11
94.073346
21
33.438716
0
LINE
8
Image
10
94.073346
20
33.438716
11
93.196957
21
32.164795
0
LINE
8
Image
10
93.196957
20
32.164795
11
92.832177
21
30.810398
0
LINE
8
Image
10
92.832177
20
30.810398
11
92.922103
21
29.472343
0
LINE
8
Image
10
92.922103
20
29.472343
11
93.409834
21
28.247448
0
LINE
8
Image
10
93.409834
20
28.247448
11
94.238466
21
27.232532
0
LINE
8
Image
10
94.238466
20
27.232532
11
95.351099
21
26.524413
0
LINE
8
Image
10
95.351099
20
26.524413
11
96.690829
21
26.219908
0
LINE
8
Image
10
96.690829
20
26.219908
11
98.200756
21
26.415836
0
LINE
8
Image
10
98.200756
20
26.415836
11
99.695596
21
26.808401
0
LINE
8
Image
10
99.695596
20
26.808401
11
99.695600
21
26.808400
0
LINE
8
Image
10
45.029100
20
27.703233
11
45.240400
21
28.233261
0
LINE
8
Image
10
45.240400
20
28.233261
11
45.523818
21
28.525018
0
LINE
8
Image
10
45.523818
20
28.525018
11
46.929530
21
28.730103
0
LINE
8
Image
10
46.929530
20
28.730103
11
48.513810
21
28.814307
0
LINE
8
Image
10
48.513810
20
28.814307
11
48.812740
21
27.704117
0
LINE
8
Image
10
48.812740
20
27.704117
11
49.179459
21
26.842118
0
LINE
8
Image
10
49.179459
20
26.842118
11
49.673686
21
26.446957
0
LINE
8
Image
10
49.673686
20
26.446957
11
50.313738
21
26.426293
0
LINE
8
Image
10
50.313738
20
26.426293
11
50.428740
21
26.630176
0
LINE
8
Image
10
50.428740
20
26.630176
11
50.396806
21
27.024494
0
LINE
8
Image
10
50.396806
20
27.024494
11
49.861364
21
28.527316
0
LINE
8
Image
10
49.861364
20
28.527316
11
48.645886
21
31.220517
0
LINE
8
Image
10
48.645886
20
31.220517
11
47.427676
21
33.972177
0
LINE
8
Image
10
47.427676
20
33.972177
11
47.161783
21
34.471536
0
LINE
8
Image
10
47.161783
20
34.471536
11
46.874670
21
34.685031
0
LINE
8
Image
10
46.874670
20
34.685031
11
46.602893
21
34.603996
0
LINE
8
Image
10
46.602893
20
34.603996
11
46.383006
21
34.219770
0
LINE
8
Image
10
46.383006
20
34.219770
11
44.685016
21
30.223120
0
LINE
8
Image
10
44.685016
20
30.223120
11
43.567956
21
27.442335
0
LINE
8
Image
10
43.567956
20
27.442335
11
43.418814
21
26.784194
0
LINE
8
Image
10
43.418814
20
26.784194
11
43.507046
21
26.501930
0
LINE
8
Image
10
43.507046
20
26.501930
11
43.925198
21
26.401482
0
LINE
8
Image
10
43.925198
20
26.401482
11
44.341096
21
26.586241
0
LINE
8
Image
10
44.341096
20
26.586241
11
44.720481
21
27.029166
0
LINE
8
Image
10
44.720481
20
27.029166
11
45.029096
21
27.703220
0
LINE
8
Image
10
45.029096
20
27.703220
11
45.029100
21
27.703233
0
LINE
8
Image
10
46.002907
20
30.071023
11
46.450257
21
31.091223
0
LINE
8
Image
10
46.450257
20
31.091223
11
46.781427
21
31.594767
0
LINE
8
Image
10
46.781427
20
31.594767
11
47.060446
21
31.699922
0
LINE
8
Image
10
47.060446
20
31.699922
11
47.302820
21
31.400922
0
LINE
8
Image
10
47.302820
20
31.400922
11
47.524057
21
30.692003
0
LINE
8
Image
10
47.524057
20
30.692003
11
47.547393
21
30.035567
0
LINE
8
Image
10
47.547393
20
30.035567
11
46.854937
21
29.915892
0
LINE
8
Image
10
46.854937
20
29.915892
11
46.002909
21
30.071018
0
LINE
8
Image
10
46.002909
20
30.071018
11
46.002907
21
30.071023
0
LINE
8
Image
10
68.091007
20
27.156753
11
68.830436
21
27.830071
0
LINE
8
Image
10
68.830436
20
27.830071
11
69.334211
21
28.661462
0
LINE
8
Image
10
69.334211
20
28.661462
11
69.612031
21
29.673800
0
LINE
8
Image
10
69.612031
20
29.673800
11
69.673597
21
30.889963
0
LINE
8
Image
10
69.673597
20
30.889963
11
69.562853
21
31.777842
0
LINE
8
Image
10
69.562853
20
31.777842
11
69.293317
21
32.550635
0
LINE
8
Image
10
69.293317
20
32.550635
11
68.866387
21
33.207327
0
LINE
8
Image
10
68.866387
20
33.207327
11
68.283460
21
33.746900
0
LINE
8
Image
10
68.283460
20
33.746900
11
67.545933
21
34.168338
0
LINE
8
Image
10
67.545933
20
34.168338
11
66.655203
21
34.470624
0
LINE
8
Image
10
66.655203
20
34.470624
11
64.419727
21
34.713673
0
LINE
8
Image
10
64.419727
20
34.713673
11
62.936200
21
34.713700
0
LINE
8
Image
10
62.936200
20
34.713700
11
62.936200
21
30.484000
0
LINE
8
Image
10
62.936200
20
30.484000
11
62.936200
21
26.254200
0
LINE
8
Image
10
62.936200
20
26.254200
11
65.123420
21
26.432536
0
LINE
8
Image
10
65.123420
20
26.432536
11
66.963217
21
26.701635
0
LINE
8
Image
10
66.963217
20
26.701635
11
68.091010
21
27.156743
0
LINE
8
Image
10
68.091010
20
27.156743
11
68.091007
21
27.156753
0
LINE
8
Image
10
64.314457
20
28.010901
11
64.243902
21
30.833041
0
LINE
8
Image
10
64.243902
20
30.833041
11
64.206197
21
33.302401
0
LINE
8
Image
10
64.206197
20
33.302401
11
65.546747
21
33.302480
0
LINE
8
Image
10
65.546747
20
33.302480
11
66.303246
21
33.222205
0
LINE
8
Image
10
66.303246
20
33.222205
11
66.950158
21
32.991010
0
LINE
8
Image
10
66.950158
20
32.991010
11
67.478544
21
32.623481
0
LINE
8
Image
10
67.478544
20
32.623481
11
67.879465
21
32.134203
0
LINE
8
Image
10
67.879465
20
32.134203
11
68.143981
21
31.537761
0
LINE
8
Image
10
68.143981
20
31.537761
11
68.263153
21
30.848742
0
LINE
8
Image
10
68.263153
20
30.848742
11
68.228042
21
30.081729
0
LINE
8
Image
10
68.228042
20
30.081729
11
68.029707
21
29.251310
0
LINE
8
Image
10
68.029707
20
29.251310
11
67.750811
21
28.777493
0
LINE
8
Image
10
67.750811
20
28.777493
11
67.282383
21
28.349168
0
LINE
8
Image
10
67.282383
20
28.349168
11
66.049987
21
27.720163
0
LINE
8
Image
10
66.049987
20
27.720163
11
64.878636
21
27.546628
0
LINE
8
Image
10
64.878636
20
27.546628
11
64.486514
21
27.687643
0
LINE
8
Image
10
64.486514
20
27.687643
11
64.314447
21
28.010900
0
LINE
8
Image
10
64.314447
20
28.010900
11
64.314457
21
28.010901
0
LINE
8
Image
10
86.946757
20
27.071971
11
87.410838
21
27.631219
0
LINE
8
Image
10
87.410838
20
27.631219
11
87.694301
21
28.194261
0
LINE
8
Image
10
87.694301
20
28.194261
11
87.799167
21
28.754214
0
LINE
8
Image
10
87.799167
20
28.754214
11
87.727457
21
29.304193
0
LINE
8
Image
10
87.727457
20
29.304193
11
87.481192
21
29.837316
0
LINE
8
Image
10
87.481192
20
29.837316
11
87.062393
21
30.346697
0
LINE
8
Image
10
87.062393
20
30.346697
11
85.715277
21
31.266701
0
LINE
8
Image
10
85.715277
20
31.266701
11
84.597332
21
31.891468
0
LINE
8
Image
10
84.597332
20
31.891468
11
84.026602
21
32.403953
0
LINE
8
Image
10
84.026602
20
32.403953
11
83.962369
21
32.866687
0
LINE
8
Image
10
83.962369
20
32.866687
11
84.363917
21
33.342201
0
LINE
8
Image
10
84.363917
20
33.342201
11
84.999144
21
33.724098
0
LINE
8
Image
10
84.999144
20
33.724098
11
85.505867
21
33.450964
0
LINE
8
Image
10
85.505867
20
33.450964
11
85.953139
21
33.154625
0
LINE
8
Image
10
85.953139
20
33.154625
11
86.406568
21
33.036370
0
LINE
8
Image
10
86.406568
20
33.036370
11
86.806937
21
33.099989
0
LINE
8
Image
10
86.806937
20
33.099989
11
87.095027
21
33.349271
0
LINE
8
Image
10
87.095027
20
33.349271
11
87.161420
21
33.614130
0
LINE
8
Image
10
87.161420
20
33.614130
11
87.061385
21
33.882840
0
LINE
8
Image
10
87.061385
20
33.882840
11
86.478082
21
34.369221
0
LINE
8
Image
10
86.478082
20
34.369221
11
85.577227
21
34.683237
0
LINE
8
Image
10
85.577227
20
34.683237
11
84.590927
21
34.699711
0
LINE
8
Image
10
84.590927
20
34.699711
11
83.678690
21
34.404854
0
LINE
8
Image
10
83.678690
20
34.404854
11
83.049598
21
33.937218
0
LINE
8
Image
10
83.049598
20
33.937218
11
82.699574
21
33.343352
0
LINE
8
Image
10
82.699574
20
33.343352
11
82.624544
21
32.669806
0
LINE
8
Image
10
82.624544
20
32.669806
11
82.820430
21
31.963131
0
LINE
8
Image
10
82.820430
20
31.963131
11
83.283159
21
31.269875
0
LINE
8
Image
10
83.283159
20
31.269875
11
84.008654
21
30.636588
0
LINE
8
Image
10
84.008654
20
30.636588
11
84.992839
21
30.109821
0
LINE
8
Image
10
84.992839
20
30.109821
11
85.712399
21
29.696046
0
LINE
8
Image
10
85.712399
20
29.696046
11
86.143169
21
29.180427
0
LINE
8
Image
10
86.143169
20
29.180427
11
86.271584
21
28.589800
0
LINE
8
Image
10
86.271584
20
28.589800
11
86.084079
21
27.951001
0
LINE
8
Image
10
86.084079
20
27.951001
11
85.666302
21
27.520157
0
LINE
8
Image
10
85.666302
20
27.520157
11
85.100973
21
27.400565
0
LINE
8
Image
10
85.100973
20
27.400565
11
84.475846
21
27.587278
0
LINE
8
Image
10
84.475846
20
27.587278
11
83.878679
21
28.075348
0
LINE
8
Image
10
83.878679
20
28.075348
11
83.382835
21
28.480136
0
LINE
8
Image
10
83.382835
20
28.480136
11
82.907388
21
28.607271
0
LINE
8
Image
10
82.907388
20
28.607271
11
82.550289
21
28.459216
0
LINE
8
Image
10
82.550289
20
28.459216
11
82.409489
21
28.038431
0
LINE
8
Image
10
82.409489
20
28.038431
11
82.545866
21
27.440879
0
LINE
8
Image
10
82.545866
20
27.440879
11
82.917577
21
26.955629
0
LINE
8
Image
10
82.917577
20
26.955629
11
83.468495
21
26.594636
0
LINE
8
Image
10
83.468495
20
26.594636
11
84.142494
21
26.369855
0
LINE
8
Image
10
84.142494
20
26.369855
11
84.883445
21
26.293242
0
LINE
8
Image
10
84.883445
20
26.293242
11
85.635221
21
26.376753
0
LINE
8
Image
10
85.635221
20
26.376753
11
86.341695
21
26.632343
0
LINE
8
Image
10
86.341695
20
26.632343
11
86.946739
21
27.071967
0
LINE
8
Image
10
86.946739
20
27.071967
11
86.946757
21
27.071971
0
LINE
8
Image
10
107.007557
20
27.620484
11
107.010944
21
29.139794
0
LINE
8
Image
10
107.010944
20
29.139794
11
107.013482
21
29.521014
0
LINE
8
Image
10
107.013482
20
29.521014
11
107.175512
21
29.524101
0
LINE
8
Image
10
107.175512
20
29.524101
11
108.355364
21
28.105644
0
LINE
8
Image
10
108.355364
20
28.105644
11
109.176145
21
27.113651
0
LINE
8
Image
10
109.176145
20
27.113651
11
109.806449
21
26.543340
0
LINE
8
Image
10
109.806449
20
26.543340
11
110.320795
21
26.344649
0
LINE
8
Image
10
110.320795
20
26.344649
11
110.793704
21
26.467514
0
LINE
8
Image
10
110.793704
20
26.467514
11
110.918922
21
26.654014
0
LINE
8
Image
10
110.918922
20
26.654014
11
110.815843
21
26.994667
0
LINE
8
Image
10
110.815843
20
26.994667
11
109.806237
21
28.366454
0
LINE
8
Image
10
109.806237
20
28.366454
11
108.423147
21
30.043984
0
LINE
8
Image
10
108.423147
20
30.043984
11
109.203011
21
30.371892
0
LINE
8
Image
10
109.203011
20
30.371892
11
109.644099
21
30.646458
0
LINE
8
Image
10
109.644099
20
30.646458
11
109.988789
21
31.038393
0
LINE
8
Image
10
109.988789
20
31.038393
11
110.369297
21
32.044283
0
LINE
8
Image
10
110.369297
20
32.044283
11
110.305169
21
33.129388
0
LINE
8
Image
10
110.305169
20
33.129388
11
110.094065
21
33.620341
0
LINE
8
Image
10
110.094065
20
33.620341
11
109.757041
21
34.033532
0
LINE
8
Image
10
109.757041
20
34.033532
11
108.898699
21
34.390894
0
LINE
8
Image
10
108.898699
20
34.390894
11
107.577852
21
34.628725
0
LINE
8
Image
10
107.577852
20
34.628725
11
106.365385
21
34.681530
0
LINE
8
Image
10
106.365385
20
34.681530
11
105.978194
21
34.618080
0
LINE
8
Image
10
105.978194
20
34.618080
11
105.832181
21
34.483812
0
LINE
8
Image
10
105.832181
20
34.483812
11
105.701766
21
31.609222
0
LINE
8
Image
10
105.701766
20
31.609222
11
105.642274
21
29.185930
0
LINE
8
Image
10
105.642274
20
29.185930
11
105.739629
21
27.549152
0
LINE
8
Image
10
105.739629
20
27.549152
11
106.000164
21
26.654041
0
LINE
8
Image
10
106.000164
20
26.654041
11
106.193602
21
26.470597
0
LINE
8
Image
10
106.193602
20
26.470597
11
106.430209
21
26.455752
0
LINE
8
Image
10
106.430209
20
26.455752
11
106.851834
21
26.796754
0
LINE
8
Image
10
106.851834
20
26.796754
11
107.007607
21
27.620472
0
LINE
8
Image
10
107.007607
20
27.620472
11
107.007557
21
27.620484
0
LINE
8
Image
10
106.962853
20
32.298134
11
107.020219
21
32.986512
0
LINE
8
Image
10
107.020219
20
32.986512
11
107.220786
21
33.377751
0
LINE
8
Image
10
107.220786
20
33.377751
11
107.607254
21
33.509922
0
LINE
8
Image
10
107.607254
20
33.509922
11
108.222323
21
33.421094
0
LINE
8
Image
10
108.222323
20
33.421094
11
108.722691
21
33.218078
0
LINE
8
Image
10
108.722691
20
33.218078
11
109.046763
21
32.928950
0
LINE
8
Image
10
109.046763
20
32.928950
11
109.202574
21
32.588451
0
LINE
8
Image
10
109.202574
20
32.588451
11
109.198159
21
32.231322
0
LINE
8
Image
10
109.198159
20
32.231322
11
109.041555
21
31.892305
0
LINE
8
Image
10
109.041555
20
31.892305
11
108.740797
21
31.606140
0
LINE
8
Image
10
108.740797
20
31.606140
11
108.303920
21
31.407570
0
LINE
8
Image
10
108.303920
20
31.407570
11
107.738961
21
31.331334
0
LINE
8
Image
10
107.738961
20
31.331334
11
107.323586
21
31.358098
0
LINE
8
Image
10
107.323586
20
31.358098
11
107.089476
21
31.486170
0
LINE
8
Image
10
107.089476
20
31.486170
11
106.962850
21
32.298133
0
LINE
8
Image
10
106.962850
20
32.298133
11
106.962853
21
32.298134
0
LINE
8
Image
10
129.196353
20
29.832254
11
129.275460
21
33.269514
0
LINE
8
Image
10
129.275460
20
33.269514
11
130.325240
21
33.356596
0
LINE
8
Image
10
130.325240
20
33.356596
11
131.162359
21
33.540382
0
LINE
8
Image
10
131.162359
20
33.540382
11
131.328078
21
33.727172
0
LINE
8
Image
10
131.328078
20
33.727172
11
131.375020
21
34.008122
0
LINE
8
Image
10
131.375020
20
34.008122
11
131.304463
21
34.318567
0
LINE
8
Image
10
131.304463
20
34.318567
11
130.951683
21
34.487900
0
LINE
8
Image
10
130.951683
20
34.487900
11
128.552800
21
34.572566
0
LINE
8
Image
10
128.552800
20
34.572566
11
126.153917
21
34.487900
0
LINE
8
Image
10
126.153917
20
34.487900
11
125.801137
21
34.318567
0
LINE
8
Image
10
125.801137
20
34.318567
11
125.730580
21
34.008122
0
LINE
8
Image
10
125.730580
20
34.008122
11
125.777680
21
33.726806
0
LINE
8
Image
10
125.777680
20
33.726806
11
125.944373
21
33.540006
0
LINE
8
Image
10
125.944373
20
33.540006
11
126.788910
21
33.356085
0
LINE
8
Image
10
126.788910
20
33.356085
11
127.847240
21
33.268495
0
LINE
8
Image
10
127.847240
20
33.268495
11
127.847000
21
29.945900
0
LINE
8
Image
10
127.847000
20
29.945900
11
127.982227
21
26.793594
0
LINE
8
Image
10
127.982227
20
26.793594
11
128.233382
21
26.338133
0
LINE
8
Image
10
128.233382
20
26.338133
11
128.679894
21
26.311250
0
LINE
8
Image
10
128.679894
20
26.311250
11
128.903602
21
26.491550
0
LINE
8
Image
10
128.903602
20
26.491550
11
129.048829
21
27.033617
0
LINE
8
Image
10
129.048829
20
27.033617
11
129.196106
21
29.832250
0
LINE
8
Image
10
129.196106
20
29.832250
11
129.196353
21
29.832254
0
LINE
8
Image
10
150.411953
20
26.838054
11
151.477359
21
27.697052
0
LINE
8
Image
10
151.477359
20
27.697052
11
152.153000
21
28.785386
0
LINE
8
Image
10
152.153000
20
28.785386
11
152.456518
21
30.004943
0
LINE
8
Image
10
152.456518
20
30.004943
11
152.405552
21
31.257610
0
LINE
8
Image
10
152.405552
20
31.257610
11
152.017744
21
32.445276
0
LINE
8
Image
10
152.017744
20
32.445276
11
151.310734
21
33.469826
0
LINE
8
Image
10
151.310734
20
33.469826
11
150.302163
21
34.233150
0
LINE
8
Image
10
150.302163
20
34.233150
11
149.009673
21
34.637134
0
LINE
8
Image
10
149.009673
20
34.637134
11
147.239992
21
34.614342
0
LINE
8
Image
10
147.239992
20
34.614342
11
145.751463
21
34.072268
0
LINE
8
Image
10
145.751463
20
34.072268
11
145.137543
21
33.621317
0
LINE
8
Image
10
145.137543
20
33.621317
11
144.623804
21
33.058325
0
LINE
8
Image
10
144.623804
20
33.058325
11
144.220213
21
32.389218
0
LINE
8
Image
10
144.220213
20
32.389218
11
143.936733
21
31.619924
0
LINE
8
Image
10
143.936733
20
31.619924
11
143.787360
21
30.269067
0
LINE
8
Image
10
143.787360
20
30.269067
11
144.045018
21
29.035099
0
LINE
8
Image
10
144.045018
20
29.035099
11
144.643160
21
27.967163
0
LINE
8
Image
10
144.643160
20
27.967163
11
145.515238
21
27.114405
0
LINE
8
Image
10
145.515238
20
27.114405
11
146.594704
21
26.525970
0
LINE
8
Image
10
146.594704
20
26.525970
11
147.815010
21
26.251004
0
LINE
8
Image
10
147.815010
20
26.251004
11
149.109609
21
26.338650
0
LINE
8
Image
10
149.109609
20
26.338650
11
150.411953
21
26.838054
0
LINE
8
Image
10
150.411953
20
26.838054
11
150.411953
21
26.838054
0
LINE
8
Image
10
146.703953
20
27.860924
11
145.918238
21
28.562239
0
LINE
8
Image
10
145.918238
20
28.562239
11
145.412568
21
29.466236
0
LINE
8
Image
10
145.412568
20
29.466236
11
145.223180
21
30.473272
0
LINE
8
Image
10
145.223180
20
30.473272
11
145.386313
21
31.483704
0
LINE
8
Image
10
145.386313
20
31.483704
11
145.871166
21
32.380660
0
LINE
8
Image
10
145.871166
20
32.380660
11
146.544850
21
33.016206
0
LINE
8
Image
10
146.544850
20
33.016206
11
147.343334
21
33.391348
0
LINE
8
Image
10
147.343334
20
33.391348
11
148.202583
21
33.507089
0
LINE
8
Image
10
148.202583
20
33.507089
11
149.058564
21
33.364436
0
LINE
8
Image
10
149.058564
20
33.364436
11
149.847245
21
32.964391
0
LINE
8
Image
10
149.847245
20
32.964391
11
150.504593
21
32.307960
0
LINE
8
Image
10
150.504593
20
32.307960
11
150.966573
21
31.396147
0
LINE
8
Image
10
150.966573
20
31.396147
11
151.124283
21
30.437724
0
LINE
8
Image
10
151.124283
20
30.437724
11
150.985412
21
29.544536
0
LINE
8
Image
10
150.985412
20
29.544536
11
150.599603
21
28.757755
0
LINE
8
Image
10
150.599603
20
28.757755
11
150.016497
21
28.118550
0
LINE
8
Image
10
150.016497
20
28.118550
11
149.285737
21
27.668093
0
LINE
8
Image
10
149.285737
20
27.668093
11
148.456965
21
27.447555
0
LINE
8
Image
10
148.456965
20
27.447555
11
147.579823
21
27.498106
0
LINE
8
Image
10
147.579823
20
27.498106
11
146.703953
21
27.860917
0
LINE
8
Image
10
146.703953
20
27.860917
11
146.703953
21
27.860924
0
LINE
8
Image
10
165.319753
20
30.409784
11
165.171481
21
33.971890
0
LINE
8
Image
10
165.171481
20
33.971890
11
164.993070
21
34.477392
0
LINE
8
Image
10
164.993070
20
34.477392
11
164.677218
21
34.572554
0
LINE
8
Image
10
164.677218
20
34.572554
11
164.368164
21
34.498296
0
LINE
8
Image
10
164.368164
20
34.498296
11
164.179851
21
34.154880
0
LINE
8
Image
10
164.179851
20
34.154880
11
163.971663
21
31.936724
0
LINE
8
Image
10
163.971663
20
31.936724
11
163.830552
21
29.300894
0
LINE
8
Image
10
163.830552
20
29.300894
11
161.333992
21
32.007274
0
LINE
8
Image
10
161.333992
20
32.007274
11
158.582332
21
34.713654
0
LINE
8
Image
10
158.582332
20
34.713654
11
158.402162
21
33.505810
0
LINE
8
Image
10
158.402162
20
33.505810
11
158.327232
21
30.601804
0
LINE
8
Image
10
158.327232
20
30.601804
11
158.407665
21
27.018712
0
LINE
8
Image
10
158.407665
20
27.018712
11
158.596313
21
26.593620
0
LINE
8
Image
10
158.596313
20
26.593620
11
158.962232
21
26.580144
0
LINE
8
Image
10
158.962232
20
26.580144
11
159.314031
21
26.686022
0
LINE
8
Image
10
159.314031
20
26.686022
11
159.508191
21
27.000460
0
LINE
8
Image
10
159.508191
20
27.000460
11
159.628530
21
28.998844
0
LINE
8
Image
10
159.628530
20
28.998844
11
159.724344
21
30.636059
0
LINE
8
Image
10
159.724344
20
30.636059
11
159.910752
21
31.302504
0
LINE
8
Image
10
159.910752
20
31.302504
11
162.518482
21
28.762314
0
LINE
8
Image
10
162.518482
20
28.762314
11
165.136602
21
26.246984
0
LINE
8
Image
10
165.136602
20
26.246984
11
165.302203
21
27.420552
0
LINE
8
Image
10
165.302203
20
27.420552
11
165.319764
21
30.409764
0
LINE
8
Image
10
165.319764
20
30.409764
11
165.319753
21
30.409784
0
LINE
8
Image
10
186.276053
20
29.156444
11
186.284915
21
31.750344
0
LINE
8
Image
10
186.284915
20
31.750344
11
188.933535
21
28.928124
0
LINE
8
Image
10
188.933535
20
28.928124
11
190.719426
21
27.080690
0
LINE
8
Image
10
190.719426
20
27.080690
11
191.254659
21
26.675101
0
LINE
8
Image
10
191.254659
20
26.675101
11
191.601282
21
26.646544
0
LINE
8
Image
10
191.601282
20
26.646544
11
191.796693
21
27.018727
0
LINE
8
Image
10
191.796693
20
27.018727
11
191.878290
21
27.815358
0
LINE
8
Image
10
191.878290
20
27.815358
11
191.849635
21
30.776804
0
LINE
8
Image
10
191.849635
20
30.776804
11
191.699557
21
34.017645
0
LINE
8
Image
10
191.699557
20
34.017645
11
191.520790
21
34.483087
0
LINE
8
Image
10
191.520790
20
34.483087
11
191.206064
21
34.572564
0
LINE
8
Image
10
191.206064
20
34.572564
11
190.896832
21
34.497911
0
LINE
8
Image
10
190.896832
20
34.497911
11
190.708567
21
34.151729
0
LINE
8
Image
10
190.708567
20
34.151729
11
190.500509
21
31.911444
0
LINE
8
Image
10
190.500509
20
31.911444
11
190.359398
21
29.250324
0
LINE
8
Image
10
190.359398
20
29.250324
11
188.101618
21
31.770334
0
LINE
8
Image
10
188.101618
20
31.770334
11
185.847858
21
34.210846
0
LINE
8
Image
10
185.847858
20
34.210846
11
185.367184
21
34.612182
0
LINE
8
Image
10
185.367184
20
34.612182
11
185.067728
21
34.709354
0
LINE
8
Image
10
185.067728
20
34.709354
11
184.918238
21
33.516352
0
LINE
8
Image
10
184.918238
20
33.516352
11
184.856061
21
30.642144
0
LINE
8
Image
10
184.856061
20
30.642144
11
184.937119
21
27.220438
0
LINE
8
Image
10
184.937119
20
27.220438
11
185.086157
21
26.641719
0
LINE
8
Image
10
185.086157
20
26.641719
11
185.349949
21
26.458464
0
LINE
8
Image
10
185.349949
20
26.458464
11
185.848554
21
26.423818
0
LINE
8
Image
10
185.848554
20
26.423818
11
186.125293
21
26.734294
0
LINE
8
Image
10
186.125293
20
26.734294
11
186.245883
21
27.581350
0
LINE
8
Image
10
186.245883
20
27.581350
11
186.276044
21
29.156444
0
LINE
8
Image
10
186.276044
20
29.156444
11
186.276053
21
29.156444
0
LINE
8
Image
10
201.566553
20
27.096974
11
201.924953
21
27.653598
0
LINE
8
Image
10
201.924953
20
27.653598
11
202.119735
21
28.225339
0
LINE
8
Image
10
202.119735
20
28.225339
11
202.154890
21
28.800839
0
LINE
8
Image
10
202.154890
20
28.800839
11
202.034413
21
29.368740
0
LINE
8
Image
10
202.034413
20
29.368740
11
201.342526
21
30.436319
0
LINE
8
Image
10
201.342526
20
30.436319
11
200.076013
21
31.337214
0
LINE
8
Image
10
200.076013
20
31.337214
11
199.208404
21
31.878402
0
LINE
8
Image
10
199.208404
20
31.878402
11
198.709404
21
32.420363
0
LINE
8
Image
10
198.709404
20
32.420363
11
198.589299
21
32.945372
0
LINE
8
Image
10
198.589299
20
32.945372
11
198.858373
21
33.435704
0
LINE
8
Image
10
198.858373
20
33.435704
11
199.346577
21
33.747270
0
LINE
8
Image
10
199.346577
20
33.747270
11
199.976773
21
33.455290
0
LINE
8
Image
10
199.976773
20
33.455290
11
200.887061
21
33.078395
0
LINE
8
Image
10
200.887061
20
33.078395
11
201.531446
21
33.152626
0
LINE
8
Image
10
201.531446
20
33.152626
11
201.692678
21
33.323011
0
LINE
8
Image
10
201.692678
20
33.323011
11
201.713939
21
33.563096
0
LINE
8
Image
10
201.713939
20
33.563096
11
201.238553
21
34.194920
0
LINE
8
Image
10
201.238553
20
34.194920
11
200.649040
21
34.562654
0
LINE
8
Image
10
200.649040
20
34.562654
11
200.031377
21
34.756445
0
LINE
8
Image
10
200.031377
20
34.756445
11
199.414672
21
34.786493
0
LINE
8
Image
10
199.414672
20
34.786493
11
198.828031
21
34.662995
0
LINE
8
Image
10
198.828031
20
34.662995
11
198.300559
21
34.396149
0
LINE
8
Image
10
198.300559
20
34.396149
11
197.861365
21
33.996152
0
LINE
8
Image
10
197.861365
20
33.996152
11
197.539554
21
33.473203
0
LINE
8
Image
10
197.539554
20
33.473203
11
197.364233
21
32.837500
0
LINE
8
Image
10
197.364233
20
32.837500
11
197.306344
21
32.190868
0
LINE
8
Image
10
197.306344
20
32.190868
11
197.384874
21
31.749644
0
LINE
8
Image
10
197.384874
20
31.749644
11
197.658450
21
31.378573
0
LINE
8
Image
10
197.658450
20
31.378573
11
198.185702
21
30.942400
0
LINE
8
Image
10
198.185702
20
30.942400
11
199.394892
21
30.198102
0
LINE
8
Image
10
199.394892
20
30.198102
11
199.795118
21
30.039654
0
LINE
8
Image
10
199.795118
20
30.039654
11
200.207663
21
29.647280
0
LINE
8
Image
10
200.207663
20
29.647280
11
200.530218
21
29.145437
0
LINE
8
Image
10
200.530218
20
29.145437
11
200.660472
21
28.658582
0
LINE
8
Image
10
200.660472
20
28.658582
11
200.453226
21
27.844170
0
LINE
8
Image
10
200.453226
20
27.844170
11
199.921265
21
27.449148
0
LINE
8
Image
10
199.921265
20
27.449148
11
199.199249
21
27.509460
0
LINE
8
Image
10
199.199249
20
27.509460
11
198.421842
21
28.061050
0
LINE
8
Image
10
198.421842
20
28.061050
11
197.918554
21
28.456115
0
LINE
8
Image
10
197.918554
20
28.456115
11
197.457992
21
28.583170
0
LINE
8
Image
10
197.457992
20
28.583170
11
197.121790
21
28.443506
0
LINE
8
Image
10
197.121790
20
28.443506
11
196.991582
21
28.038416
0
LINE
8
Image
10
196.991582
20
28.038416
11
197.140245
21
27.455530
0
LINE
8
Image
10
197.140245
20
27.455530
11
197.542132
21
26.978332
0
LINE
8
Image
10
197.542132
20
26.978332
11
198.131089
21
26.620436
0
LINE
8
Image
10
198.131089
20
26.620436
11
198.840962
21
26.395455
0
LINE
8
Image
10
198.840962
20
26.395455
11
199.605599
21
26.317003
0
LINE
8
Image
10
199.605599
20
26.317003
11
200.358845
21
26.398694
0
LINE
8
Image
10
200.358845
20
26.398694
11
201.034547
21
26.654141
0
LINE
8
Image
10
201.034547
20
26.654141
11
201.566552
21
27.096957
0
LINE
8
Image
10
201.566552
20
27.096957
11
201.566553
21
27.096974
0
LINE
8
Image
10
217.636853
20
27.812046
11
217.916256
21
28.288932
0
LINE
8
Image
10
217.916256
20
28.288932
11
218.329824
21
28.623447
0
LINE
8
Image
10
218.329824
20
28.623447
11
218.835588
21
28.816791
0
LINE
8
Image
10
218.835588
20
28.816791
11
219.391577
21
28.870164
0
LINE
8
Image
10
219.391577
20
28.870164
11
220.486346
21
28.561795
0
LINE
8
Image
10
220.486346
20
28.561795
11
220.941184
21
28.202454
0
LINE
8
Image
10
220.941184
20
28.202454
11
221.278363
21
27.707940
0
LINE
8
Image
10
221.278363
20
27.707940
11
222.040934
21
26.603490
0
LINE
8
Image
10
222.040934
20
26.603490
11
222.436406
21
26.400977
0
LINE
8
Image
10
222.436406
20
26.400977
11
222.836573
21
26.435490
0
LINE
8
Image
10
222.836573
20
26.435490
11
223.007038
21
26.656633
0
LINE
8
Image
10
223.007038
20
26.656633
11
222.909581
21
27.217271
0
LINE
8
Image
10
222.909581
20
27.217271
11
221.689113
21
30.057010
0
LINE
8
Image
10
221.689113
20
30.057010
11
220.294743
21
33.140800
0
LINE
8
Image
10
220.294743
20
33.140800
11
219.687346
21
34.286612
0
LINE
8
Image
10
219.687346
20
34.286612
11
219.457442
21
34.541172
0
LINE
8
Image
10
219.457442
20
34.541172
11
219.299027
21
34.551910
0
LINE
8
Image
10
219.299027
20
34.551910
11
218.554610
21
33.125526
0
LINE
8
Image
10
218.554610
20
33.125526
11
217.415842
21
30.460027
0
LINE
8
Image
10
217.415842
20
30.460027
11
216.403525
21
27.836055
0
LINE
8
Image
10
216.403525
20
27.836055
11
216.038457
21
26.534250
0
LINE
8
Image
10
216.038457
20
26.534250
11
216.366114
21
26.370647
0
LINE
8
Image
10
216.366114
20
26.370647
11
216.810703
21
26.584216
0
LINE
8
Image
10
216.810703
20
26.584216
11
217.268764
21
27.092250
0
LINE
8
Image
10
217.268764
20
27.092250
11
217.636837
21
27.812040
0
LINE
8
Image
10
217.636837
20
27.812040
11
217.636853
21
27.812046
0
LINE
8
Image
10
218.860003
20
30.938136
11
219.297123
21
32.137576
0
LINE
8
Image
10
219.297123
20
32.137576
11
219.434330
21
32.097795
0
LINE
8
Image
10
219.434330
20
32.097795
11
219.715282
21
31.592920
0
LINE
8
Image
10
219.715282
20
31.592920
11
220.123788
21
30.409776
0
LINE
8
Image
10
220.123788
20
30.409776
11
219.940931
21
30.026588
0
LINE
8
Image
10
219.940931
20
30.026588
11
219.283337
21
29.915888
0
LINE
8
Image
10
219.283337
20
29.915888
11
218.433000
21
29.915900
0
LINE
8
Image
10
218.433000
20
29.915900
11
218.860003
21
30.938136
0
LINE
8
Image
10
234.719603
20
30.409783
11
234.594579
21
33.975227
0
LINE
8
Image
10
234.594579
20
33.975227
11
234.419489
21
34.478642
0
LINE
8
Image
10
234.419489
20
34.478642
11
234.103755
21
34.572553
0
LINE
8
Image
10
234.103755
20
34.572553
11
233.793836
21
34.499163
0
LINE
8
Image
10
233.793836
20
34.499163
11
233.613881
21
34.146765
0
LINE
8
Image
10
233.613881
20
34.146765
11
233.458423
21
31.811583
0
LINE
8
Image
10
233.458423
20
31.811583
11
233.377535
21
29.050603
0
LINE
8
Image
10
233.377535
20
29.050603
11
231.740035
21
30.823803
0
LINE
8
Image
10
231.740035
20
30.823803
11
229.091815
21
33.724933
0
LINE
8
Image
10
229.091815
20
33.724933
11
228.334109
21
34.477647
0
LINE
8
Image
10
228.334109
20
34.477647
11
227.931695
21
34.703453
0
LINE
8
Image
10
227.931695
20
34.703453
11
227.736062
21
30.612193
0
LINE
8
Image
10
227.736062
20
30.612193
11
227.778058
21
27.199088
0
LINE
8
Image
10
227.778058
20
27.199088
11
227.950621
21
26.710789
0
LINE
8
Image
10
227.950621
20
26.710789
11
228.286245
21
26.580153
0
LINE
8
Image
10
228.286245
20
26.580153
11
228.605660
21
26.572976
0
LINE
8
Image
10
228.605660
20
26.572976
11
228.788402
21
26.727493
0
LINE
8
Image
10
228.788402
20
26.727493
11
228.903566
21
27.850153
0
LINE
8
Image
10
228.903566
20
27.850153
11
229.115233
21
30.464953
0
LINE
8
Image
10
229.115233
20
30.464953
11
229.305984
21
31.719573
0
LINE
8
Image
10
229.305984
20
31.719573
11
231.704874
21
28.987123
0
LINE
8
Image
10
231.704874
20
28.987123
11
233.497092
21
27.056202
0
LINE
8
Image
10
233.497092
20
27.056202
11
234.437384
21
26.250843
0
LINE
8
Image
10
234.437384
20
26.250843
11
234.589745
21
26.471220
0
LINE
8
Image
10
234.589745
20
26.471220
11
234.684133
21
27.187211
0
LINE
8
Image
10
234.684133
20
27.187211
11
234.719606
21
30.409783
0
LINE
8
Image
10
234.719606
20
30.409783
11
234.719603
21
30.409783
0
LINE
8
Image
10
250.698803
20
27.682323
11
250.971932
21
28.309900
0
LINE
8
Image
10
250.971932
20
28.309900
11
251.262519
21
28.639082
0
LINE
8
Image
10
251.262519
20
28.639082
11
251.730523
21
28.766054
0
LINE
8
Image
10
251.730523
20
28.766054
11
252.535903
21
28.787003
0
LINE
8
Image
10
252.535903
20
28.787003
11
253.339786
21
28.765841
0
LINE
8
Image
10
253.339786
20
28.765841
11
253.808634
21
28.639555
0
LINE
8
Image
10
253.808634
20
28.639555
11
254.101159
21
28.313949
0
LINE
8
Image
10
254.101159
20
28.313949
11
254.376073
21
27.694823
0
LINE
8
Image
10
254.376073
20
27.694823
11
254.774011
21
26.938622
0
LINE
8
Image
10
254.774011
20
26.938622
11
255.206048
21
26.484312
0
LINE
8
Image
10
255.206048
20
26.484312
11
255.598510
21
26.381660
0
LINE
8
Image
10
255.598510
20
26.381660
11
255.877723
21
26.680433
0
LINE
8
Image
10
255.877723
20
26.680433
11
255.850032
21
27.170761
0
LINE
8
Image
10
255.850032
20
27.170761
11
255.479136
21
28.279296
0
LINE
8
Image
10
255.479136
20
28.279296
11
253.262143
21
33.515383
0
LINE
8
Image
10
253.262143
20
33.515383
11
252.820990
21
34.339812
0
LINE
8
Image
10
252.820990
20
34.339812
11
252.497347
21
34.635993
0
LINE
8
Image
10
252.497347
20
34.635993
11
251.836416
21
33.480305
0
LINE
8
Image
10
251.836416
20
33.480305
11
250.723087
21
30.997661
0
LINE
8
Image
10
250.723087
20
30.997661
11
249.674343
21
28.402290
0
LINE
8
Image
10
249.674343
20
28.402290
11
249.207167
21
26.908423
0
LINE
8
Image
10
249.207167
20
26.908423
11
249.367663
21
26.429179
0
LINE
8
Image
10
249.367663
20
26.429179
11
249.765133
21
26.447893
0
LINE
8
Image
10
249.765133
20
26.447893
11
250.256527
21
26.890346
0
LINE
8
Image
10
250.256527
20
26.890346
11
250.698797
21
27.682318
0
LINE
8
Image
10
250.698797
20
27.682318
11
250.698803
21
27.682323
0
LINE
8
Image
10
251.742583
20
30.184833
11
252.083078
21
31.191412
0
LINE
8
Image
10
252.083078
20
31.191412
11
252.572677
21
31.891443
0
LINE
8
Image
10
252.572677
20
31.891443
11
252.806484
21
31.633656
0
LINE
8
Image
10
252.806484
20
31.633656
11
253.059946
21
31.052504
0
LINE
8
Image
10
253.059946
20
31.052504
11
253.230874
21
30.436299
0
LINE
8
Image
10
253.230874
20
30.436299
11
253.217080
21
30.073353
0
LINE
8
Image
10
253.217080
20
30.073353
11
252.874575
21
29.938461
0
LINE
8
Image
10
252.874575
20
29.938461
11
252.380173
21
29.922246
0
LINE
8
Image
10
252.380173
20
29.922246
11
251.935599
21
30.009455
0
LINE
8
Image
10
251.935599
20
30.009455
11
251.742580
21
30.184836
0
LINE
8
Image
10
251.742580
20
30.184836
11
251.742583
21
30.184833
0
LINE
8
Image
10
262.193683
20
29.169973
11
262.202545
21
31.750333
0
LINE
8
Image
10
262.202545
20
31.750333
11
264.804225
21
28.972273
0
LINE
8
Image
10
264.804225
20
28.972273
11
266.703837
21
27.073289
0
LINE
8
Image
10
266.703837
20
27.073289
11
267.617575
21
26.408753
0
LINE
8
Image
10
267.617575
20
26.408753
11
267.844146
21
27.864754
0
LINE
8
Image
10
267.844146
20
27.864754
11
267.853226
21
30.622641
0
LINE
8
Image
10
267.853226
20
30.622641
11
267.684445
21
33.327029
0
LINE
8
Image
10
267.684445
20
33.327029
11
267.545739
21
34.235603
0
LINE
8
Image
10
267.545739
20
34.235603
11
267.377429
21
34.622533
0
LINE
8
Image
10
267.377429
20
34.622533
11
266.931451
21
34.632165
0
LINE
8
Image
10
266.931451
20
34.632165
11
266.637321
21
34.215768
0
LINE
8
Image
10
266.637321
20
34.215768
11
266.474501
21
33.314101
0
LINE
8
Image
10
266.474501
20
33.314101
11
266.422452
21
31.867923
0
LINE
8
Image
10
266.422452
20
31.867923
11
266.254919
21
29.564523
0
LINE
8
Image
10
266.254919
20
29.564523
11
265.434449
21
30.230057
0
LINE
8
Image
10
265.434449
20
30.230057
11
263.691029
21
32.059373
0
LINE
8
Image
10
263.691029
20
32.059373
11
261.919661
21
33.889727
0
LINE
8
Image
10
261.919661
20
33.889727
11
261.032019
21
34.557783
0
LINE
8
Image
10
261.032019
20
34.557783
11
260.810790
21
33.203119
0
LINE
8
Image
10
260.810790
20
33.203119
11
260.763707
21
30.463878
0
LINE
8
Image
10
260.763707
20
30.463878
11
260.874393
21
27.745445
0
LINE
8
Image
10
260.874393
20
27.745445
11
261.126467
21
26.453203
0
LINE
8
Image
10
261.126467
20
26.453203
11
261.664395
21
26.385289
0
LINE
8
Image
10
261.664395
20
26.385289
11
261.987789
21
26.729446
0
LINE
8
Image
10
261.987789
20
26.729446
11
262.147325
21
27.614673
0
LINE
8
Image
10
262.147325
20
27.614673
11
262.193677
21
29.169973
0
LINE
8
Image
10
262.193677
20
29.169973
11
262.193683
21
29.169973
0
LINE
8
Image
10
277.654083
20
27.024343
11
277.656819
21
27.350076
0
LINE
8
Image
10
277.656819
20
27.350076
11
277.484265
21
27.543346
0
LINE
8
Image
10
277.484265
20
27.543346
11
276.242973
21
27.713306
0
LINE
8
Image
10
276.242973
20
27.713306
11
274.743693
21
27.799220
0
LINE
8
Image
10
274.743693
20
27.799220
11
274.656907
21
28.998660
0
LINE
8
Image
10
274.656907
20
28.998660
11
274.570124
21
30.198100
0
LINE
8
Image
10
274.570124
20
30.198100
11
276.158000
21
30.198100
0
LINE
8
Image
10
276.158000
20
30.198100
11
277.495626
21
30.292861
0
LINE
8
Image
10
277.495626
20
30.292861
11
277.666320
21
30.483299
0
LINE
8
Image
10
277.666320
20
30.483299
11
277.655880
21
30.833099
0
LINE
8
Image
10
277.655880
20
30.833099
11
277.558655
21
31.168577
0
LINE
8
Image
10
277.558655
20
31.168577
11
277.324548
21
31.372833
0
LINE
8
Image
10
277.324548
20
31.372833
11
276.084040
21
31.553403
0
LINE
8
Image
10
276.084040
20
31.553403
11
274.808223
21
31.740386
0
LINE
8
Image
10
274.808223
20
31.740386
11
274.633263
21
31.994479
0
LINE
8
Image
10
274.633263
20
31.994479
11
274.602370
21
32.455876
0
LINE
8
Image
10
274.602370
20
32.455876
11
274.633261
21
32.917273
0
LINE
8
Image
10
274.633261
20
32.917273
11
274.808219
21
33.171366
0
LINE
8
Image
10
274.808219
20
33.171366
11
276.084040
21
33.358349
0
LINE
8
Image
10
276.084040
20
33.358349
11
277.324901
21
33.539006
0
LINE
8
Image
10
277.324901
20
33.539006
11
277.558843
21
33.743605
0
LINE
8
Image
10
277.558843
20
33.743605
11
277.656050
21
34.079886
0
LINE
8
Image
10
277.656050
20
34.079886
11
277.663316
21
34.437849
0
LINE
8
Image
10
277.663316
20
34.437849
11
277.439467
21
34.623983
0
LINE
8
Image
10
277.439467
20
34.623983
11
275.609940
21
34.684005
0
LINE
8
Image
10
275.609940
20
34.684005
11
273.830551
21
34.567700
0
LINE
8
Image
10
273.830551
20
34.567700
11
273.536656
21
34.402064
0
LINE
8
Image
10
273.536656
20
34.402064
11
273.463750
21
34.118328
0
LINE
8
Image
10
273.463750
20
34.118328
11
273.443289
21
30.127548
0
LINE
8
Image
10
273.443289
20
30.127548
11
273.432565
21
26.670328
0
LINE
8
Image
10
273.432565
20
26.670328
11
274.229133
21
26.524758
0
LINE
8
Image
10
274.229133
20
26.524758
11
275.549295
21
26.367634
0
LINE
8
Image
10
275.549295
20
26.367634
11
276.616102
21
26.406687
0
LINE
8
Image
10
276.616102
20
26.406687
11
277.345610
21
26.629670
0
LINE
8
Image
10
277.345610
20
26.629670
11
277.653873
21
27.024339
0
LINE
8
Image
10
277.653873
20
27.024339
11
277.654083
21
27.024343
0
LINE
8
Image
10
39.321083
20
26.924961
11
39.386871
21
27.284598
0
LINE
8
Image
10
39.386871
20
27.284598
11
39.217825
21
27.509742
0
LINE
8
Image
10
39.217825
20
27.509742
11
37.983123
21
27.662430
0
LINE
8
Image
10
37.983123
20
27.662430
11
36.880239
21
27.736052
0
LINE
8
Image
10
36.880239
20
27.736052
11
36.539887
21
27.879932
0
LINE
8
Image
10
36.539887
20
27.879932
11
36.314686
21
28.144838
0
LINE
8
Image
10
36.314686
20
28.144838
11
36.133016
21
29.186667
0
LINE
8
Image
10
36.133016
20
29.186667
11
36.181783
21
31.159420
0
LINE
8
Image
10
36.181783
20
31.159420
11
36.216961
21
33.031969
0
LINE
8
Image
10
36.216961
20
33.031969
11
36.095310
21
34.141757
0
LINE
8
Image
10
36.095310
20
34.141757
11
35.782376
21
34.614226
0
LINE
8
Image
10
35.782376
20
34.614226
11
35.243705
21
34.574820
0
LINE
8
Image
10
35.243705
20
34.574820
11
35.055930
21
34.327794
0
LINE
8
Image
10
35.055930
20
34.327794
11
34.950293
21
33.663599
0
LINE
8
Image
10
34.950293
20
33.663599
11
34.940599
21
30.477730
0
LINE
8
Image
10
34.940599
20
30.477730
11
35.026028
21
26.529220
0
LINE
8
Image
10
35.026028
20
26.529220
11
37.097600
21
26.529200
0
LINE
8
Image
10
37.097600
20
26.529200
11
38.736464
21
26.618406
0
LINE
8
Image
10
38.736464
20
26.618406
11
39.140045
21
26.740858
0
LINE
8
Image
10
39.140045
20
26.740858
11
39.321060
21
26.924940
0
LINE
8
Image
10
39.321060
20
26.924940
11
39.321083
21
26.924961
0
LINE
8
Image
10
76.702383
20
30.550881
11
76.553585
21
33.989490
0
LINE
8
Image
10
76.553585
20
33.989490
11
76.375061
21
34.479574
0
LINE
8
Image
10
76.375061
20
34.479574
11
76.059622
21
34.572541
0
LINE
8
Image
10
76.059622
20
34.572541
11
75.744172
21
34.479574
0
LINE
8
Image
10
75.744172
20
34.479574
11
75.565649
21
33.989490
0
LINE
8
Image
10
75.565649
20
33.989490
11
75.416861
21
30.550881
0
LINE
8
Image
10
75.416861
20
30.550881
11
75.338573
21
26.529221
0
LINE
8
Image
10
75.338573
20
26.529221
11
76.059500
21
26.529200
0
LINE
8
Image
10
76.059500
20
26.529200
11
76.780600
21
26.529200
0
LINE
8
Image
10
76.780600
20
26.529200
11
76.702383
21
30.550881
0
LINE
8
Image
10
120.739483
20
27.023101
11
120.619454
21
27.265732
0
LINE
8
Image
10
120.619454
20
27.265732
11
120.337685
21
27.441241
0
LINE
8
Image
10
120.337685
20
27.441241
11
119.117243
21
27.658100
0
LINE
8
Image
10
119.117243
20
27.658100
11
117.588703
21
27.799211
0
LINE
8
Image
10
117.588703
20
27.799211
11
117.495090
21
28.984511
0
LINE
8
Image
10
117.495090
20
28.984511
11
117.401477
21
30.169821
0
LINE
8
Image
10
117.401477
20
30.169821
11
119.026057
21
30.254513
0
LINE
8
Image
10
119.026057
20
30.254513
11
120.366448
21
30.423138
0
LINE
8
Image
10
120.366448
20
30.423138
11
120.594854
21
30.606139
0
LINE
8
Image
10
120.594854
20
30.606139
11
120.650667
21
30.903652
0
LINE
8
Image
10
120.650667
20
30.903652
11
120.594588
21
31.201445
0
LINE
8
Image
10
120.594588
20
31.201445
11
120.364449
21
31.384457
0
LINE
8
Image
10
120.364449
20
31.384457
11
119.010567
21
31.553254
0
LINE
8
Image
10
119.010567
20
31.553254
11
117.603223
21
31.729521
0
LINE
8
Image
10
117.603223
20
31.729521
11
117.440085
21
31.966349
0
LINE
8
Image
10
117.440085
20
31.966349
11
117.458347
21
32.399920
0
LINE
8
Image
10
117.458347
20
32.399920
11
117.546692
21
32.816385
0
LINE
8
Image
10
117.546692
20
32.816385
11
117.763086
21
33.064665
0
LINE
8
Image
10
117.763086
20
33.064665
11
119.010567
21
33.308743
0
LINE
8
Image
10
119.010567
20
33.308743
11
120.550650
21
33.612560
0
LINE
8
Image
10
120.550650
20
33.612560
11
120.766146
21
33.868522
0
LINE
8
Image
10
120.766146
20
33.868522
11
120.706667
21
34.246200
0
LINE
8
Image
10
120.706667
20
34.246200
11
120.529397
21
34.435692
0
LINE
8
Image
10
120.529397
20
34.435692
11
120.136360
21
34.553703
0
LINE
8
Image
10
120.136360
20
34.553703
11
118.484567
21
34.611150
0
LINE
8
Image
10
118.484567
20
34.611150
11
116.417347
21
34.572540
0
LINE
8
Image
10
116.417347
20
34.572540
11
116.339030
21
30.550880
0
LINE
8
Image
10
116.339030
20
30.550880
11
116.260742
21
26.529220
0
LINE
8
Image
10
116.260742
20
26.529220
11
118.547000
21
26.529200
0
LINE
8
Image
10
118.547000
20
26.529200
11
120.433712
21
26.612106
0
LINE
8
Image
10
120.433712
20
26.612106
11
120.716700
21
26.761375
0
LINE
8
Image
10
120.716700
20
26.761375
11
120.739530
21
27.023088
0
LINE
8
Image
10
120.739530
20
27.023088
11
120.739483
21
27.023101
0
LINE
8
Image
10
138.007283
20
30.621431
11
137.932261
21
33.528916
0
LINE
8
Image
10
137.932261
20
33.528916
11
137.748147
21
34.713651
0
LINE
8
Image
10
137.748147
20
34.713651
11
137.111573
21
34.610750
0
LINE
8
Image
10
137.111573
20
34.610750
11
136.766315
21
34.083954
0
LINE
8
Image
10
136.766315
20
34.083954
11
136.623980
21
32.806127
0
LINE
8
Image
10
136.623980
20
32.806127
11
136.596177
21
30.450131
0
LINE
8
Image
10
136.596177
20
30.450131
11
136.596000
21
26.529200
0
LINE
8
Image
10
136.596000
20
26.529200
11
137.302000
21
26.529200
0
LINE
8
Image
10
137.302000
20
26.529200
11
138.007000
21
26.529200
0
LINE
8
Image
10
138.007000
20
26.529200
11
138.007283
21
30.621431
0
LINE
8
Image
10
179.148883
20
30.550876
11
179.002058
21
33.936471
0
LINE
8
Image
10
179.002058
20
33.936471
11
178.837891
21
34.459688
0
LINE
8
Image
10
178.837891
20
34.459688
11
178.559050
21
34.572536
0
LINE
8
Image
10
178.559050
20
34.572536
11
178.398987
21
34.382736
0
LINE
8
Image
10
178.398987
20
34.382736
11
178.260354
21
33.851239
0
LINE
8
Image
10
178.260354
20
33.851239
11
178.061331
21
31.990558
0
LINE
8
Image
10
178.061331
20
31.990558
11
177.989901
21
29.445312
0
LINE
8
Image
10
177.989901
20
29.445312
11
178.073981
21
26.670316
0
LINE
8
Image
10
178.073981
20
26.670316
11
178.654994
21
26.529205
0
LINE
8
Image
10
178.654994
20
26.529205
11
178.975515
21
26.612328
0
LINE
8
Image
10
178.975515
20
26.612328
11
179.137124
21
27.086005
0
LINE
8
Image
10
179.137124
20
27.086005
11
179.148882
21
30.550865
0
LINE
8
Image
10
179.148882
20
30.550865
11
179.148883
21
30.550876
0
LINE
8
Image
10
209.731183
20
27.446436
11
209.820004
21
30.198096
0
LINE
8
Image
10
209.820004
20
30.198096
11
209.880123
21
32.046774
0
LINE
8
Image
10
209.880123
20
32.046774
11
210.010274
21
32.962413
0
LINE
8
Image
10
210.010274
20
32.962413
11
210.330714
21
33.272004
0
LINE
8
Image
10
210.330714
20
33.272004
11
210.961694
21
33.302536
0
LINE
8
Image
10
210.961694
20
33.302536
11
211.781548
21
33.424218
0
LINE
8
Image
10
211.781548
20
33.424218
11
211.917368
21
33.640740
0
LINE
8
Image
10
211.917368
20
33.640740
11
211.949471
21
34.018310
0
LINE
8
Image
10
211.949471
20
34.018310
11
211.949000
21
34.734100
0
LINE
8
Image
10
211.949000
20
34.734100
11
209.197340
21
34.653325
0
LINE
8
Image
10
209.197340
20
34.653325
11
206.870289
21
34.497915
0
LINE
8
Image
10
206.870289
20
34.497915
11
206.518919
21
34.317963
0
LINE
8
Image
10
206.518919
20
34.317963
11
206.445680
21
34.008106
0
LINE
8
Image
10
206.445680
20
34.008106
11
206.492781
21
33.726791
0
LINE
8
Image
10
206.492781
20
33.726791
11
206.659476
21
33.539992
0
LINE
8
Image
10
206.659476
20
33.539992
11
207.504010
21
33.356069
0
LINE
8
Image
10
207.504010
20
33.356069
11
208.562340
21
33.268479
0
LINE
8
Image
10
208.562340
20
33.268479
11
208.563000
21
29.898900
0
LINE
8
Image
10
208.563000
20
29.898900
11
208.645374
21
27.021030
0
LINE
8
Image
10
208.645374
20
27.021030
11
208.814420
21
26.608379
0
LINE
8
Image
10
208.814420
20
26.608379
11
209.127444
21
26.529270
0
LINE
8
Image
10
209.127444
20
26.529270
11
209.583063
21
26.719415
0
LINE
8
Image
10
209.583063
20
26.719415
11
209.731379
21
27.446491
0
LINE
8
Image
10
209.731379
20
27.446491
11
209.731183
21
27.446436
0
LINE
8
Image
10
242.993883
20
29.915876
11
242.994000
21
33.302600
0
LINE
8
Image
10
242.994000
20
33.302600
11
243.949000
21
33.302600
0
LINE
8
Image
10
243.949000
20
33.302600
11
244.572853
21
33.447679
0
LINE
8
Image
10
244.572853
20
33.447679
11
245.036392
21
33.792342
0
LINE
8
Image
10
245.036392
20
33.792342
11
245.222422
21
34.200726
0
LINE
8
Image
10
245.222422
20
34.200726
11
245.013750
21
34.536970
0
LINE
8
Image
10
245.013750
20
34.536970
11
242.468931
21
34.689023
0
LINE
8
Image
10
242.468931
20
34.689023
11
239.806300
21
34.555709
0
LINE
8
Image
10
239.806300
20
34.555709
11
239.319677
21
34.185285
0
LINE
8
Image
10
239.319677
20
34.185285
11
239.408852
21
33.773939
0
LINE
8
Image
10
239.408852
20
33.773939
11
239.970313
21
33.440205
0
LINE
8
Image
10
239.970313
20
33.440205
11
240.900550
21
33.302619
0
LINE
8
Image
10
240.900550
20
33.302619
11
241.583000
21
33.302600
0
LINE
8
Image
10
241.583000
20
33.302600
11
241.583000
21
29.915900
0
LINE
8
Image
10
241.583000
20
29.915900
11
241.583000
21
26.529300
0
LINE
8
Image
10
241.583000
20
26.529300
11
242.288000
21
26.529300
0
LINE
8
Image
10
242.288000
20
26.529300
11
242.994000
21
26.529300
0
LINE
8
Image
10
242.994000
20
26.529300
11
242.994000
21
29.915900
0
LINE
8
Image
10
242.994000
20
29.915900
11
242.993883
21
29.915876
0
LINE
8
Image
10
287.584983
20
27.093656
11
287.534270
21
27.391112
0
LINE
8
Image
10
287.534270
20
27.391112
11
287.320397
21
27.561888
0
LINE
8
Image
10
287.320397
20
27.561888
11
286.032763
21
27.658100
0
LINE
8
Image
10
286.032763
20
27.658100
11
284.480000
21
27.658100
0
LINE
8
Image
10
284.480000
20
27.658100
11
284.480000
21
28.928100
0
LINE
8
Image
10
284.480000
20
28.928100
11
284.480000
21
30.198100
0
LINE
8
Image
10
284.480000
20
30.198100
11
286.033000
21
30.198100
0
LINE
8
Image
10
286.033000
20
30.198100
11
287.359441
21
30.300726
0
LINE
8
Image
10
287.359441
20
30.300726
11
287.549060
21
30.511991
0
LINE
8
Image
10
287.549060
20
30.511991
11
287.585220
21
30.903655
0
LINE
8
Image
10
287.585220
20
30.903655
11
287.549060
21
31.295319
0
LINE
8
Image
10
287.549060
20
31.295319
11
287.359443
21
31.506584
0
LINE
8
Image
10
287.359443
20
31.506584
11
286.033000
21
31.609210
0
LINE
8
Image
10
286.033000
20
31.609210
11
284.682979
21
31.717581
0
LINE
8
Image
10
284.682979
20
31.717581
11
284.508098
21
31.965104
0
LINE
8
Image
10
284.508098
20
31.965104
11
284.480780
21
32.441127
0
LINE
8
Image
10
284.480780
20
32.441127
11
284.510773
21
32.912283
0
LINE
8
Image
10
284.510773
20
32.912283
11
284.684234
21
33.170526
0
LINE
8
Image
10
284.684234
20
33.170526
11
285.962450
21
33.358349
0
LINE
8
Image
10
285.962450
20
33.358349
11
287.177694
21
33.529810
0
LINE
8
Image
10
287.177694
20
33.529810
11
287.390512
21
33.713500
0
LINE
8
Image
10
287.390512
20
33.713500
11
287.444120
21
34.008097
0
LINE
8
Image
10
287.444120
20
34.008097
11
287.384587
21
34.313249
0
LINE
8
Image
10
287.384587
20
34.313249
11
287.108977
21
34.483171
0
LINE
8
Image
10
287.108977
20
34.483171
11
285.327450
21
34.572541
0
LINE
8
Image
10
285.327450
20
34.572541
11
283.210000
21
34.572600
0
LINE
8
Image
10
283.210000
20
34.572600
11
283.131683
21
30.550940
0
LINE
8
Image
10
283.131683
20
30.550940
11
283.053395
21
26.529280
0
LINE
8
Image
10
283.053395
20
26.529280
11
285.319000
21
26.529200
0
LINE
8
Image
10
285.319000
20
26.529200
11
287.230788
21
26.617334
0
LINE
8
Image
10
287.230788
20
26.617334
11
287.522681
21
26.787101
0
LINE
8
Image
10
287.522681
20
26.787101
11
287.584540
21
27.093644
0
LINE
8
Image
10
287.584540
20
27.093644
11
287.584983
21
27.093656
0
LINE
8
Image
10
119.126000
20
35.872400
11
119.888423
21
36.874433
0
LINE
8
Image
10
119.888423
20
36.874433
11
119.899167
21
37.163696
0
LINE
8
Image
10
119.899167
20
37.163696
11
119.688017
21
37.379030
0
LINE
8
Image
10
119.688017
20
37.379030
11
119.339099
21
37.462226
0
LINE
8
Image
10
119.339099
20
37.462226
11
118.954074
21
37.321552
0
LINE
8
Image
10
118.954074
20
37.321552
11
118.165967
21
36.425154
0
LINE
8
Image
10
118.165967
20
36.425154
11
117.729971
21
35.461564
0
LINE
8
Image
10
117.729971
20
35.461564
11
117.797181
21
35.017992
0
LINE
8
Image
10
117.797181
20
35.017992
11
118.288792
21
35.139812
0
LINE
8
Image
10
118.288792
20
35.139812
11
119.126002
21
35.872397
0
LINE
8
Image
10
119.126002
20
35.872397
11
119.126000
21
35.872400
0
LINE
8
Image
10
276.265000
20
35.861930
11
276.640820
21
36.526935
0
LINE
8
Image
10
276.640820
20
36.526935
11
276.742827
21
37.062997
0
LINE
8
Image
10
276.742827
20
37.062997
11
276.578281
21
37.372000
0
LINE
8
Image
10
276.578281
20
37.372000
11
276.154445
21
37.355830
0
LINE
8
Image
10
276.154445
20
37.355830
11
275.767698
21
37.039006
0
LINE
8
Image
10
275.767698
20
37.039006
11
275.351972
21
36.467433
0
LINE
8
Image
10
275.351972
20
36.467433
11
275.019923
21
35.824135
0
LINE
8
Image
10
275.019923
20
35.824135
11
274.884205
21
35.292140
0
LINE
8
Image
10
274.884205
20
35.292140
11
275.011860
21
35.013608
0
LINE
8
Image
10
275.011860
20
35.013608
11
275.339685
21
35.038483
0
LINE
8
Image
10
275.339685
20
35.038483
11
275.784970
21
35.332635
0
LINE
8
Image
10
275.784970
20
35.332635
11
276.265005
21
35.861932
0
LINE
8
Image
10
276.265005
20
35.861932
11
276.265000
21
35.861930
0
LINE
8
Image
10
212.623000
20
53.490530
11
212.994126
21
54.033169
0
LINE
8
Image
10
212.994126
20
54.033169
11
213.249237
21
54.700650
0
LINE
8
Image
10
213.249237
20
54.700650
11
214.460317
21
58.561470
0
LINE
8
Image
10
214.460317
20
58.561470
11
217.301177
21
67.169240
0
LINE
8
Image
10
217.301177
20
67.169240
11
220.273797
21
76.200340
0
LINE
8
Image
10
220.273797
20
76.200340
11
224.239617
21
88.270040
0
LINE
8
Image
10
224.239617
20
88.270040
11
225.062495
21
90.792170
0
LINE
8
Image
10
225.062495
20
90.792170
11
225.503385
21
92.189040
0
LINE
8
Image
10
225.503385
20
92.189040
11
225.603907
21
92.904100
0
LINE
8
Image
10
225.603907
20
92.904100
11
224.777007
21
93.106264
0
LINE
8
Image
10
224.777007
20
93.106264
11
223.184030
21
93.139501
0
LINE
8
Image
10
223.184030
20
93.139501
11
221.612496
21
93.024228
0
LINE
8
Image
10
221.612496
20
93.024228
11
220.849927
21
92.780859
0
LINE
8
Image
10
220.849927
20
92.780859
11
219.424877
21
88.194749
0
LINE
8
Image
10
219.424877
20
88.194749
11
217.596857
21
82.409199
0
LINE
8
Image
10
217.596857
20
82.409199
11
216.300517
21
78.252649
0
LINE
8
Image
10
216.300517
20
78.252649
11
215.600692
21
76.231124
0
LINE
8
Image
10
215.600692
20
76.231124
11
215.364062
21
75.919396
0
LINE
8
Image
10
215.364062
20
75.919396
11
215.145117
21
75.958869
0
LINE
8
Image
10
215.145117
20
75.958869
11
214.770919
21
76.598776
0
LINE
8
Image
10
214.770919
20
76.598776
11
211.622599
21
87.206976
0
LINE
8
Image
10
211.622599
20
87.206976
11
210.654919
21
90.562436
0
LINE
8
Image
10
210.654919
20
90.562436
11
210.114523
21
92.188746
0
LINE
8
Image
10
210.114523
20
92.188746
11
209.716771
21
93.140701
0
LINE
8
Image
10
209.716771
20
93.140701
11
199.473271
21
93.066612
0
LINE
8
Image
10
199.473271
20
93.066612
11
191.018949
21
92.931777
0
LINE
8
Image
10
191.018949
20
92.931777
11
189.598266
21
92.793141
0
LINE
8
Image
10
189.598266
20
92.793141
11
189.272671
21
92.569190
0
LINE
8
Image
10
189.272671
20
92.569190
11
191.213951
21
86.783640
0
LINE
8
Image
10
191.213951
20
86.783640
11
194.472161
21
77.470310
0
LINE
8
Image
10
194.472161
20
77.470310
11
196.869991
21
70.696980
0
LINE
8
Image
10
196.869991
20
70.696980
11
198.248381
21
66.745870
0
LINE
8
Image
10
198.248381
20
66.745870
11
198.753324
21
65.193650
0
LINE
8
Image
10
198.753324
20
65.193650
11
202.761124
21
53.717850
0
LINE
8
Image
10
202.761124
20
53.717850
11
203.221413
21
53.438386
0
LINE
8
Image
10
203.221413
20
53.438386
11
204.291367
21
53.221687
0
LINE
8
Image
10
204.291367
20
53.221687
11
207.482335
21
52.994507
0
LINE
8
Image
10
207.482335
20
52.994507
11
210.778157
21
53.072173
0
LINE
8
Image
10
210.778157
20
53.072173
11
211.979180
21
53.236530
0
LINE
8
Image
10
211.979180
20
53.236530
11
212.622964
21
53.490546
0
LINE
8
Image
10
212.622964
20
53.490546
11
212.623000
21
53.490530
0
LINE
8
Image
10
94.827300
20
104.555000
11
94.827300
21
105.533000
0
LINE
8
Image
10
94.827300
20
105.533000
11
91.511190
21
105.612513
0
LINE
8
Image
10
91.511190
20
105.612513
11
88.195080
21
105.692026
0
LINE
8
Image
10
88.195080
20
105.692026
11
88.113687
21
108.151116
0
LINE
8
Image
10
88.113687
20
108.151116
11
88.032294
21
110.610216
0
LINE
8
Image
10
88.032294
20
110.610216
11
90.794794
21
110.691118
0
LINE
8
Image
10
90.794794
20
110.691118
11
93.557294
21
110.772028
0
LINE
8
Image
10
93.557294
20
110.772028
11
93.645743
21
111.689250
0
LINE
8
Image
10
93.645743
20
111.689250
11
93.734166
21
112.606471
0
LINE
8
Image
10
93.734166
20
112.606471
11
91.246856
21
112.610789
0
LINE
8
Image
10
91.246856
20
112.610789
11
89.386611
21
112.654632
0
LINE
8
Image
10
89.386611
20
112.654632
11
88.434837
21
112.925164
0
LINE
8
Image
10
88.434837
20
112.925164
11
88.210085
21
113.214526
0
LINE
8
Image
10
88.210085
20
113.214526
11
88.105002
21
113.643466
0
LINE
8
Image
10
88.105002
20
113.643466
11
88.110576
21
115.030619
0
LINE
8
Image
10
88.110576
20
115.030619
11
88.195073
21
116.980909
0
LINE
8
Image
10
88.195073
20
116.980909
11
91.511183
21
117.060423
0
LINE
8
Image
10
91.511183
20
117.060423
11
94.827293
21
117.139933
0
LINE
8
Image
10
94.827293
20
117.139933
11
94.827300
21
117.965000
0
LINE
8
Image
10
94.827300
20
117.965000
11
94.654913
21
118.597146
0
LINE
8
Image
10
94.654913
20
118.597146
11
93.920750
21
118.943626
0
LINE
8
Image
10
93.920750
20
118.943626
11
92.299306
21
119.069743
0
LINE
8
Image
10
92.299306
20
119.069743
11
89.465080
21
119.040800
0
LINE
8
Image
10
89.465080
20
119.040800
11
85.937300
21
118.956608
0
LINE
8
Image
10
85.937300
20
118.956608
11
85.867619
21
111.901058
0
LINE
8
Image
10
85.867619
20
111.901058
11
85.943565
21
104.210508
0
LINE
8
Image
10
85.943565
20
104.210508
11
86.104800
21
103.847658
0
LINE
8
Image
10
86.104800
20
103.847658
11
86.642283
21
103.658669
0
LINE
8
Image
10
86.642283
20
103.658669
11
90.458215
21
103.575508
0
LINE
8
Image
10
90.458215
20
103.575508
11
94.827300
21
103.576000
0
LINE
8
Image
10
94.827300
20
103.576000
11
94.827300
21
104.555000
0
LINE
8
Image
10
100.815570
20
106.892290
11
100.895072
21
110.208400
0
LINE
8
Image
10
100.895072
20
110.208400
11
103.516692
21
110.289691
0
LINE
8
Image
10
103.516692
20
110.289691
11
105.817841
21
110.461306
0
LINE
8
Image
10
105.817841
20
110.461306
11
106.208211
21
110.691830
0
LINE
8
Image
10
106.208211
20
110.691830
11
106.419962
21
111.111759
0
LINE
8
Image
10
106.419962
20
111.111759
11
106.565574
21
111.746039
0
LINE
8
Image
10
106.565574
20
111.746039
11
106.268038
21
112.112163
0
LINE
8
Image
10
106.268038
20
112.112163
11
105.334861
21
112.296177
0
LINE
8
Image
10
105.334861
20
112.296177
11
103.573552
21
112.384129
0
LINE
8
Image
10
103.573552
20
112.384129
11
100.895072
21
112.466174
0
LINE
8
Image
10
100.895072
20
112.466174
11
100.811224
21
114.557974
0
LINE
8
Image
10
100.811224
20
114.557974
11
100.803093
21
116.050807
0
LINE
8
Image
10
100.803093
20
116.050807
11
100.919221
21
116.505785
0
LINE
8
Image
10
100.919221
20
116.505785
11
101.175794
21
116.808211
0
LINE
8
Image
10
101.175794
20
116.808211
11
102.291228
21
117.080632
0
LINE
8
Image
10
102.291228
20
117.080632
11
104.511294
21
117.118514
0
LINE
8
Image
10
104.511294
20
117.118514
11
107.563044
21
117.122832
0
LINE
8
Image
10
107.563044
20
117.122832
11
107.474621
21
118.040054
0
LINE
8
Image
10
107.474621
20
118.040054
11
107.386172
21
118.957276
0
LINE
8
Image
10
107.386172
20
118.957276
11
103.889272
21
119.051795
0
LINE
8
Image
10
103.889272
20
119.051795
11
99.460702
21
118.971534
0
LINE
8
Image
10
99.460702
20
118.971534
11
98.529031
21
118.796751
0
LINE
8
Image
10
98.529031
20
118.796751
11
98.505889
21
111.650031
0
LINE
8
Image
10
98.505889
20
111.650031
11
98.510738
21
106.971927
0
LINE
8
Image
10
98.510738
20
106.971927
11
98.645075
21
104.576156
0
LINE
8
Image
10
98.645075
20
104.576156
11
98.798695
21
103.995439
0
LINE
8
Image
10
98.798695
20
103.995439
11
99.030161
21
103.698857
0
LINE
8
Image
10
99.030161
20
103.698857
11
99.787259
21
103.576171
0
LINE
8
Image
10
99.787259
20
103.576171
11
100.736000
21
103.576000
0
LINE
8
Image
10
100.736000
20
103.576000
11
100.815570
21
106.892290
0
LINE
8
Image
10
112.827770
20
107.023289
11
112.907190
21
110.329279
0
LINE
8
Image
10
112.907190
20
110.329279
11
115.649990
21
110.409952
0
LINE
8
Image
10
115.649990
20
110.409952
11
118.392790
21
110.490620
0
LINE
8
Image
10
118.392790
20
110.490620
11
118.481238
21
111.407841
0
LINE
8
Image
10
118.481238
20
111.407841
11
118.569661
21
112.325063
0
LINE
8
Image
10
118.569661
20
112.325063
11
115.730000
21
112.325000
0
LINE
8
Image
10
115.730000
20
112.325000
11
112.889000
21
112.325000
0
LINE
8
Image
10
112.889000
20
112.325000
11
112.889000
21
114.724000
0
LINE
8
Image
10
112.889000
20
114.724000
11
112.889000
21
117.123000
0
LINE
8
Image
10
112.889000
20
117.123000
11
116.103000
21
117.123000
0
LINE
8
Image
10
116.103000
20
117.123000
11
119.317000
21
117.123000
0
LINE
8
Image
10
119.317000
20
117.123000
11
119.438666
21
117.951990
0
LINE
8
Image
10
119.438666
20
117.951990
11
119.420248
21
118.581000
0
LINE
8
Image
10
119.420248
20
118.581000
11
119.234782
21
118.777685
0
LINE
8
Image
10
119.234782
20
118.777685
11
118.866425
21
118.910079
0
LINE
8
Image
10
118.866425
20
118.910079
11
117.384877
21
119.024760
0
LINE
8
Image
10
117.384877
20
119.024760
11
114.583286
21
119.010580
0
LINE
8
Image
10
114.583286
20
119.010580
11
110.773286
21
118.957446
0
LINE
8
Image
10
110.773286
20
118.957446
11
110.697820
21
111.624306
0
LINE
8
Image
10
110.697820
20
111.624306
11
110.663070
21
106.844517
0
LINE
8
Image
10
110.663070
20
106.844517
11
110.763736
21
104.458306
0
LINE
8
Image
10
110.763736
20
104.458306
11
110.900659
21
103.909844
0
LINE
8
Image
10
110.900659
20
103.909844
11
111.114407
21
103.656238
0
LINE
8
Image
10
111.114407
20
103.656238
11
111.829670
21
103.628876
0
LINE
8
Image
10
111.829670
20
103.628876
11
112.748836
21
103.717457
0
LINE
8
Image
10
112.748836
20
103.717457
11
112.827770
21
107.023289
0
LINE
8
Image
10
122.622230
20
105.551739
11
123.185925
21
107.240961
0
LINE
8
Image
10
123.185925
20
107.240961
11
123.720108
21
108.075133
0
LINE
8
Image
10
123.720108
20
108.075133
11
124.587972
21
108.338590
0
LINE
8
Image
10
124.587972
20
108.338590
11
126.152710
21
108.315669
0
LINE
8
Image
10
126.152710
20
108.315669
11
128.514260
21
108.232851
0
LINE
8
Image
10
128.514260
20
108.232851
11
129.239091
21
105.975071
0
LINE
8
Image
10
129.239091
20
105.975071
11
129.674555
21
104.669007
0
LINE
8
Image
10
129.674555
20
104.669007
11
130.005660
21
103.989071
0
LINE
8
Image
10
130.005660
20
103.989071
11
130.399265
21
103.715793
0
LINE
8
Image
10
130.399265
20
103.715793
11
131.022231
21
103.629701
0
LINE
8
Image
10
131.022231
20
103.629701
11
131.811121
21
103.668047
0
LINE
8
Image
10
131.811121
20
103.668047
11
131.966333
21
103.929933
0
LINE
8
Image
10
131.966333
20
103.929933
11
131.940268
21
104.484486
0
LINE
8
Image
10
131.940268
20
104.484486
11
131.278942
21
106.864167
0
LINE
8
Image
10
131.278942
20
106.864167
11
129.696411
21
111.592241
0
LINE
8
Image
10
129.696411
20
111.592241
11
128.225183
21
115.863791
0
LINE
8
Image
10
128.225183
20
115.863791
11
127.315325
21
118.082527
0
LINE
8
Image
10
127.315325
20
118.082527
11
126.962076
21
118.628338
0
LINE
8
Image
10
126.962076
20
118.628338
11
126.618570
21
118.908441
0
LINE
8
Image
10
126.618570
20
118.908441
11
125.786651
21
119.001521
0
LINE
8
Image
10
125.786651
20
119.001521
11
125.146371
21
118.895851
0
LINE
8
Image
10
125.146371
20
118.895851
11
124.589599
21
118.116064
0
LINE
8
Image
10
124.589599
20
118.116064
11
123.737501
21
115.840641
0
LINE
8
Image
10
123.737501
20
115.840641
11
122.211241
21
111.248061
0
LINE
8
Image
10
122.211241
20
111.248061
11
120.707151
21
106.653476
0
LINE
8
Image
10
120.707151
20
106.653476
11
120.087826
21
104.383942
0
LINE
8
Image
10
120.087826
20
104.383942
11
120.070110
21
103.871825
0
LINE
8
Image
10
120.070110
20
103.871825
11
120.225776
21
103.641876
0
LINE
8
Image
10
120.225776
20
103.641876
11
120.993511
21
103.629691
0
LINE
8
Image
10
120.993511
20
103.629691
11
121.600274
21
103.714173
0
LINE
8
Image
10
121.600274
20
103.714173
11
121.979348
21
103.950992
0
LINE
8
Image
10
121.979348
20
103.950992
11
122.272687
21
104.507671
0
LINE
8
Image
10
122.272687
20
104.507671
11
122.622241
21
105.551731
0
LINE
8
Image
10
122.622241
20
105.551731
11
122.622230
21
105.551739
0
LINE
8
Image
10
124.181250
20
110.420069
11
125.108970
21
113.691369
0
LINE
8
Image
10
125.108970
20
113.691369
11
126.033811
21
116.609889
0
LINE
8
Image
10
126.033811
20
116.609889
11
126.840176
21
113.832479
0
LINE
8
Image
10
126.840176
20
113.832479
11
127.779806
21
110.561179
0
LINE
8
Image
10
127.779806
20
110.561179
11
127.789025
21
110.300900
0
LINE
8
Image
10
127.789025
20
110.300900
11
127.572059
21
110.151472
0
LINE
8
Image
10
127.572059
20
110.151472
11
126.045696
21
110.067291
0
LINE
8
Image
10
126.045696
20
110.067291
11
124.622481
21
110.151066
0
LINE
8
Image
10
124.622481
20
110.151066
11
124.287878
21
110.260757
0
LINE
8
Image
10
124.287878
20
110.260757
11
124.181256
21
110.420069
0
LINE
8
Image
10
124.181256
20
110.420069
11
124.181250
21
110.420069
0
LINE
8
Image
10
142.884650
20
103.963719
11
143.868960
21
104.477618
0
LINE
8
Image
10
143.868960
20
104.477618
11
144.570165
21
105.035028
0
LINE
8
Image
10
144.570165
20
105.035028
11
144.930510
21
105.576178
0
LINE
8
Image
10
144.930510
20
105.576178
11
144.892240
21
106.041299
0
LINE
8
Image
10
144.892240
20
106.041299
11
144.448128
21
106.594673
0
LINE
8
Image
10
144.448128
20
106.594673
11
143.978274
21
106.811011
0
LINE
8
Image
10
143.978274
20
106.811011
11
143.405503
21
106.697957
0
LINE
8
Image
10
143.405503
20
106.697957
11
142.652640
21
106.263157
0
LINE
8
Image
10
142.652640
20
106.263157
11
141.839398
21
105.811727
0
LINE
8
Image
10
141.839398
20
105.811727
11
141.041674
21
105.564131
0
LINE
8
Image
10
141.041674
20
105.564131
11
140.269230
21
105.505278
0
LINE
8
Image
10
140.269230
20
105.505278
11
139.531826
21
105.620078
0
LINE
8
Image
10
139.531826
20
105.620078
11
138.839223
21
105.893441
0
LINE
8
Image
10
138.839223
20
105.893441
11
138.201181
21
106.310277
0
LINE
8
Image
10
138.201181
20
106.310277
11
137.127829
21
107.514007
0
LINE
8
Image
10
137.127829
20
107.514007
11
136.389855
21
109.110545
0
LINE
8
Image
10
136.389855
20
109.110545
11
136.065347
21
110.979171
0
LINE
8
Image
10
136.065347
20
110.979171
11
136.232393
21
112.999162
0
LINE
8
Image
10
136.232393
20
112.999162
11
136.524651
21
114.028194
0
LINE
8
Image
10
136.524651
20
114.028194
11
136.969080
21
115.049797
0
LINE
8
Image
10
136.969080
20
115.049797
11
137.421557
21
115.745263
0
LINE
8
Image
10
137.421557
20
115.745263
11
137.979127
21
116.305651
0
LINE
8
Image
10
137.979127
20
116.305651
11
138.623071
21
116.725881
0
LINE
8
Image
10
138.623071
20
116.725881
11
139.334669
21
117.000868
0
LINE
8
Image
10
139.334669
20
117.000868
11
140.095199
21
117.125532
0
LINE
8
Image
10
140.095199
20
117.125532
11
140.885943
21
117.094790
0
LINE
8
Image
10
140.885943
20
117.094790
11
141.688180
21
116.903559
0
LINE
8
Image
10
141.688180
20
116.903559
11
142.483190
21
116.546757
0
LINE
8
Image
10
142.483190
20
116.546757
11
143.499184
21
116.090655
0
LINE
8
Image
10
143.499184
20
116.090655
11
143.802936
21
116.110261
0
LINE
8
Image
10
143.802936
20
116.110261
11
144.076140
21
116.277091
0
LINE
8
Image
10
144.076140
20
116.277091
11
144.409276
21
116.724884
0
LINE
8
Image
10
144.409276
20
116.724884
11
144.428107
21
117.211003
0
LINE
8
Image
10
144.428107
20
117.211003
11
144.173664
21
117.704315
0
LINE
8
Image
10
144.173664
20
117.704315
11
143.686977
21
118.173685
0
LINE
8
Image
10
143.686977
20
118.173685
11
142.181002
21
118.916067
0
LINE
8
Image
10
142.181002
20
118.916067
11
141.243775
21
119.126812
0
LINE
8
Image
10
141.243775
20
119.126812
11
140.238430
21
119.189081
0
LINE
8
Image
10
140.238430
20
119.189081
11
138.963362
21
119.033098
0
LINE
8
Image
10
138.963362
20
119.033098
11
137.813635
21
118.641814
0
LINE
8
Image
10
137.813635
20
118.641814
11
136.794076
21
118.042906
0
LINE
8
Image
10
136.794076
20
118.042906
11
135.909512
21
117.264051
0
LINE
8
Image
10
135.909512
20
117.264051
11
135.164772
21
116.332928
0
LINE
8
Image
10
135.164772
20
116.332928
11
134.564681
21
115.277213
0
LINE
8
Image
10
134.564681
20
115.277213
11
134.114069
21
114.124584
0
LINE
8
Image
10
134.114069
20
114.124584
11
133.817761
21
112.902719
0
LINE
8
Image
10
133.817761
20
112.902719
11
133.680587
21
111.639294
0
LINE
8
Image
10
133.680587
20
111.639294
11
133.707372
21
110.361988
0
LINE
8
Image
10
133.707372
20
110.361988
11
133.902946
21
109.098478
0
LINE
8
Image
10
133.902946
20
109.098478
11
134.272135
21
107.876442
0
LINE
8
Image
10
134.272135
20
107.876442
11
134.819766
21
106.723557
0
LINE
8
Image
10
134.819766
20
106.723557
11
135.550667
21
105.667500
0
LINE
8
Image
10
135.550667
20
105.667500
11
136.469666
21
104.735949
0
LINE
8
Image
10
136.469666
20
104.735949
11
137.581590
21
103.956581
0
LINE
8
Image
10
137.581590
20
103.956581
11
138.596003
21
103.698718
0
LINE
8
Image
10
138.596003
20
103.698718
11
140.127460
21
103.614358
0
LINE
8
Image
10
140.127460
20
103.614358
11
141.711746
21
103.702881
0
LINE
8
Image
10
141.711746
20
103.702881
11
142.884650
21
103.963665
0
LINE
8
Image
10
142.884650
20
103.963665
11
142.884650
21
103.963719
0
LINE
8
Image
10
157.382250
20
103.872934
11
157.553019
21
104.285503
0
LINE
8
Image
10
157.553019
20
104.285503
11
157.546898
21
104.860711
0
LINE
8
Image
10
157.546898
20
104.860711
11
157.415723
21
105.258528
0
LINE
8
Image
10
157.415723
20
105.258528
11
157.005119
21
105.463863
0
LINE
8
Image
10
157.005119
20
105.463863
11
154.061028
21
105.551737
0
LINE
8
Image
10
154.061028
20
105.551737
11
150.707000
21
105.551000
0
LINE
8
Image
10
150.707000
20
105.551000
11
150.707000
21
108.081000
0
LINE
8
Image
10
150.707000
20
108.081000
11
150.707000
21
110.610000
0
LINE
8
Image
10
150.707000
20
110.610000
11
153.317550
21
110.691144
0
LINE
8
Image
10
153.317550
20
110.691144
11
155.928100
21
110.772292
0
LINE
8
Image
10
155.928100
20
110.772292
11
156.015730
21
111.678696
0
LINE
8
Image
10
156.015730
20
111.678696
11
156.103360
21
112.585103
0
LINE
8
Image
10
156.103360
20
112.585103
11
153.475730
21
112.666473
0
LINE
8
Image
10
153.475730
20
112.666473
11
150.848100
21
112.747846
0
LINE
8
Image
10
150.848100
20
112.747846
11
150.848000
21
114.865000
0
LINE
8
Image
10
150.848000
20
114.865000
11
150.848000
21
116.981000
0
LINE
8
Image
10
150.848000
20
116.981000
11
154.040180
21
117.060959
0
LINE
8
Image
10
154.040180
20
117.060959
11
157.232340
21
117.140918
0
LINE
8
Image
10
157.232340
20
117.140918
11
157.144625
21
118.048736
0
LINE
8
Image
10
157.144625
20
118.048736
11
157.056883
21
118.956554
0
LINE
8
Image
10
157.056883
20
118.956554
11
152.728000
21
118.957000
0
LINE
8
Image
10
152.728000
20
118.957000
11
148.400000
21
118.957000
0
LINE
8
Image
10
148.400000
20
118.957000
11
148.422013
21
112.324780
0
LINE
8
Image
10
148.422013
20
112.324780
11
148.446849
21
104.634230
0
LINE
8
Image
10
148.446849
20
104.634230
11
148.449671
21
103.575900
0
LINE
8
Image
10
148.449671
20
103.575900
11
152.767000
21
103.576000
0
LINE
8
Image
10
152.767000
20
103.576000
11
155.997498
21
103.656251
0
LINE
8
Image
10
155.997498
20
103.656251
11
157.381750
21
103.872751
0
LINE
8
Image
10
157.381750
20
103.872751
11
157.382250
21
103.872934
0
LINE
8
Image
10
188.806150
20
106.468954
11
192.106980
21
116.840654
0
LINE
8
Image
10
192.106980
20
116.840654
11
192.397449
21
118.153344
0
LINE
8
Image
10
192.397449
20
118.153344
11
192.439911
21
118.656413
0
LINE
8
Image
10
192.439911
20
118.656413
11
192.350781
21
118.916637
0
LINE
8
Image
10
192.350781
20
118.916637
11
191.452440
21
119.000010
0
LINE
8
Image
10
191.452440
20
119.000010
11
190.396190
21
118.957321
0
LINE
8
Image
10
190.396190
20
118.957321
11
189.285440
21
115.147321
0
LINE
8
Image
10
189.285440
20
115.147321
11
187.463420
21
108.938441
0
LINE
8
Image
10
187.463420
20
108.938441
11
186.752147
21
106.539551
0
LINE
8
Image
10
186.752147
20
106.539551
11
186.074109
21
108.797331
0
LINE
8
Image
10
186.074109
20
108.797331
11
184.580799
21
113.736211
0
LINE
8
Image
10
184.580799
20
113.736211
11
183.454039
21
117.613921
0
LINE
8
Image
10
183.454039
20
117.613921
11
183.105522
21
118.430211
0
LINE
8
Image
10
183.105522
20
118.430211
11
182.588241
21
118.935631
0
LINE
8
Image
10
182.588241
20
118.935631
11
181.941737
21
119.107181
0
LINE
8
Image
10
181.941737
20
119.107181
11
181.205549
21
118.921861
0
LINE
8
Image
10
181.205549
20
118.921861
11
181.026806
21
118.825619
0
LINE
8
Image
10
181.026806
20
118.825619
11
180.931340
21
118.637150
0
LINE
8
Image
10
180.931340
20
118.637150
11
181.151552
21
117.383889
0
LINE
8
Image
10
181.151552
20
117.383889
11
184.365749
21
107.174561
0
LINE
8
Image
10
184.365749
20
107.174561
11
185.523469
21
103.576231
0
LINE
8
Image
10
185.523469
20
103.576231
11
186.712000
21
103.576000
0
LINE
8
Image
10
186.712000
20
103.576000
11
187.901000
21
103.576000
0
LINE
8
Image
10
187.901000
20
103.576000
11
188.806150
21
106.468954
0
LINE
8
Image
10
197.490120
20
111.246254
11
197.512762
21
116.022401
0
LINE
8
Image
10
197.512762
20
116.022401
11
197.345203
21
118.404141
0
LINE
8
Image
10
197.345203
20
118.404141
11
197.137940
21
118.932334
0
LINE
8
Image
10
197.137940
20
118.932334
11
196.820536
21
119.144195
0
LINE
8
Image
10
196.820536
20
119.144195
11
195.771850
21
118.995284
0
LINE
8
Image
10
195.771850
20
118.995284
11
195.157221
21
118.841219
0
LINE
8
Image
10
195.157221
20
118.841219
11
195.236692
21
111.192189
0
LINE
8
Image
10
195.236692
20
111.192189
11
195.316163
21
103.543159
0
LINE
8
Image
10
195.316163
20
103.543159
11
196.365583
21
103.630222
0
LINE
8
Image
10
196.365583
20
103.630222
11
197.415003
21
103.717281
0
LINE
8
Image
10
197.415003
20
103.717281
11
197.490120
21
111.246254
0
LINE
8
Image
10
211.102720
20
104.563954
11
211.103000
21
105.551000
0
LINE
8
Image
10
211.103000
20
105.551000
11
207.716000
21
105.551000
0
LINE
8
Image
10
207.716000
20
105.551000
11
204.329000
21
105.551000
0
LINE
8
Image
10
204.329000
20
105.551000
11
204.329000
21
108.091000
0
LINE
8
Image
10
204.329000
20
108.091000
11
204.329000
21
110.631000
0
LINE
8
Image
10
204.329000
20
110.631000
11
207.005000
21
110.631000
0
LINE
8
Image
10
207.005000
20
110.631000
11
209.356226
21
110.725513
0
LINE
8
Image
10
209.356226
20
110.725513
11
209.711712
21
110.941577
0
LINE
8
Image
10
209.711712
20
110.941577
11
209.863000
21
111.357219
0
LINE
8
Image
10
209.863000
20
111.357219
11
209.910241
21
112.026610
0
LINE
8
Image
10
209.910241
20
112.026610
11
209.564101
21
112.427191
0
LINE
8
Image
10
209.564101
20
112.427191
11
208.711881
21
112.614229
0
LINE
8
Image
10
208.711881
20
112.614229
11
207.240880
21
112.642989
0
LINE
8
Image
10
207.240880
20
112.642989
11
205.561110
21
112.659742
0
LINE
8
Image
10
205.561110
20
112.659742
11
204.690996
21
112.924749
0
LINE
8
Image
10
204.690996
20
112.924749
11
204.481917
21
113.215284
0
LINE
8
Image
10
204.481917
20
113.215284
11
204.382079
21
113.645806
0
LINE
8
Image
10
204.382079
20
113.645806
11
204.385900
21
115.030709
0
LINE
8
Image
10
204.385900
20
115.030709
11
204.470383
21
116.980999
0
LINE
8
Image
10
204.470383
20
116.980999
11
207.614663
21
117.060509
0
LINE
8
Image
10
207.614663
20
117.060509
11
210.758943
21
117.140023
0
LINE
8
Image
10
210.758943
20
117.140023
11
210.880462
21
117.967983
0
LINE
8
Image
10
210.880462
20
117.967983
11
210.768576
21
118.593267
0
LINE
8
Image
10
210.768576
20
118.593267
11
210.015554
21
118.943559
0
LINE
8
Image
10
210.015554
20
118.943559
11
208.339411
21
119.074748
0
LINE
8
Image
10
208.339411
20
119.074748
11
205.458162
21
119.042723
0
LINE
8
Image
10
205.458162
20
119.042723
11
202.212612
21
118.956549
0
LINE
8
Image
10
202.212612
20
118.956549
11
202.137521
21
111.265999
0
LINE
8
Image
10
202.137521
20
111.265999
11
202.062431
21
103.575449
0
LINE
8
Image
10
202.062431
20
103.575449
11
206.583000
21
103.576000
0
LINE
8
Image
10
206.583000
20
103.576000
11
211.103000
21
103.576000
0
LINE
8
Image
10
211.103000
20
103.576000
11
211.102720
21
104.563954
0
LINE
8
Image
10
218.954490
20
104.070066
11
220.047742
21
108.237195
0
LINE
8
Image
10
220.047742
20
108.237195
11
221.434420
21
114.263366
0
LINE
8
Image
10
221.434420
20
114.263366
11
221.600129
21
114.734651
0
LINE
8
Image
10
221.600129
20
114.734651
11
221.843502
21
114.394234
0
LINE
8
Image
10
221.843502
20
114.394234
11
222.984160
21
110.165206
0
LINE
8
Image
10
222.984160
20
110.165206
11
224.016201
21
106.031405
0
LINE
8
Image
10
224.016201
20
106.031405
11
224.600292
21
104.111348
0
LINE
8
Image
10
224.600292
20
104.111348
11
224.839785
21
103.720827
0
LINE
8
Image
10
224.839785
20
103.720827
11
225.105803
21
103.570965
0
LINE
8
Image
10
225.105803
20
103.570965
11
225.902100
21
103.576186
0
LINE
8
Image
10
225.902100
20
103.576186
11
227.133000
21
103.576000
0
LINE
8
Image
10
227.133000
20
103.576000
11
227.451835
21
105.057670
0
LINE
8
Image
10
227.451835
20
105.057670
11
228.059490
21
107.950450
0
LINE
8
Image
10
228.059490
20
107.950450
11
229.433251
21
114.699781
0
LINE
8
Image
10
229.433251
20
114.699781
11
229.992894
21
117.975450
0
LINE
8
Image
10
229.992894
20
117.975450
11
230.006095
21
118.700696
0
LINE
8
Image
10
230.006095
20
118.700696
11
229.862175
21
119.025569
0
LINE
8
Image
10
229.862175
20
119.025569
11
229.576603
21
119.106082
0
LINE
8
Image
10
229.576603
20
119.106082
11
229.164850
21
119.098250
0
LINE
8
Image
10
229.164850
20
119.098250
11
228.578776
21
119.044837
0
LINE
8
Image
10
228.578776
20
119.044837
11
228.215450
21
118.797002
0
LINE
8
Image
10
228.215450
20
118.797002
11
227.978925
21
118.223351
0
LINE
8
Image
10
227.978925
20
118.223351
11
227.773260
21
117.192490
0
LINE
8
Image
10
227.773260
20
117.192490
11
226.966480
21
113.030480
0
LINE
8
Image
10
226.966480
20
113.030480
11
226.194174
21
108.700250
0
LINE
8
Image
10
226.194174
20
108.700250
11
225.992906
21
107.646385
0
LINE
8
Image
10
225.992906
20
107.646385
11
225.874226
21
107.509404
0
LINE
8
Image
10
225.874226
20
107.509404
11
225.729927
21
107.657533
0
LINE
8
Image
10
225.729927
20
107.657533
11
225.323706
21
108.884539
0
LINE
8
Image
10
225.323706
20
108.884539
11
224.692714
21
111.478250
0
LINE
8
Image
10
224.692714
20
111.478250
11
223.073948
21
117.890594
0
LINE
8
Image
10
223.073948
20
117.890594
11
222.577794
21
118.822077
0
LINE
8
Image
10
222.577794
20
118.822077
11
222.001624
21
119.049750
0
LINE
8
Image
10
222.001624
20
119.049750
11
221.363201
21
119.046504
0
LINE
8
Image
10
221.363201
20
119.046504
11
220.962554
21
118.908639
0
LINE
8
Image
10
220.962554
20
118.908639
11
219.679789
21
114.409903
0
LINE
8
Image
10
219.679789
20
114.409903
11
218.313644
21
108.585439
0
LINE
8
Image
10
218.313644
20
108.585439
11
218.079477
21
107.700640
0
LINE
8
Image
10
218.079477
20
107.700640
11
217.951494
21
107.642061
0
LINE
8
Image
10
217.951494
20
107.642061
11
217.807082
21
107.860815
0
LINE
8
Image
10
217.807082
20
107.860815
11
216.927734
21
111.830989
0
LINE
8
Image
10
216.927734
20
111.830989
11
216.175986
21
115.840668
0
LINE
8
Image
10
216.175986
20
115.840668
11
215.661219
21
117.974275
0
LINE
8
Image
10
215.661219
20
117.974275
11
215.181875
21
118.839912
0
LINE
8
Image
10
215.181875
20
118.839912
11
214.536394
21
119.045679
0
LINE
8
Image
10
214.536394
20
119.045679
11
213.705779
21
119.047025
0
LINE
8
Image
10
213.705779
20
119.047025
11
213.513162
21
118.786249
0
LINE
8
Image
10
213.513162
20
118.786249
11
213.478220
21
118.191148
0
LINE
8
Image
10
213.478220
20
118.191148
11
213.909005
21
115.517894
0
LINE
8
Image
10
213.909005
20
115.517894
11
215.053422
21
110.067109
0
LINE
8
Image
10
215.053422
20
110.067109
11
216.092042
21
105.128229
0
LINE
8
Image
10
216.092042
20
105.128229
11
216.539130
21
103.928789
0
LINE
8
Image
10
216.539130
20
103.928789
11
217.054097
21
103.640342
0
LINE
8
Image
10
217.054097
20
103.640342
11
217.794720
21
103.577434
0
LINE
8
Image
10
217.794720
20
103.577434
11
218.511369
21
103.725481
0
LINE
8
Image
10
218.511369
20
103.725481
11
218.954410
21
104.069900
0
LINE
8
Image
10
218.954410
20
104.069900
11
218.954490
21
104.070066
0
LINE
8
Image
10
197.731000
20
127.124000
11
197.816179
21
127.321122
0
LINE
8
Image
10
197.816179
20
127.321122
11
197.757985
21
127.799205
0
LINE
8
Image
10
197.757985
20
127.799205
11
197.213744
21
129.587460
0
LINE
8
Image
10
197.213744
20
129.587460
11
191.172144
21
147.037660
0
LINE
8
Image
10
191.172144
20
147.037660
11
189.924104
21
150.565430
0
LINE
8
Image
10
189.924104
20
150.565430
11
188.818684
21
153.669870
0
LINE
8
Image
10
188.818684
20
153.669870
11
186.111914
21
161.572090
0
LINE
8
Image
10
186.111914
20
161.572090
11
183.920194
21
168.509084
0
LINE
8
Image
10
183.920194
20
168.509084
11
183.355988
21
171.029635
0
LINE
8
Image
10
183.355988
20
171.029635
11
183.143925
21
173.028940
0
LINE
8
Image
10
183.143925
20
173.028940
11
183.282288
21
174.590039
0
LINE
8
Image
10
183.282288
20
174.590039
11
183.769357
21
175.795971
0
LINE
8
Image
10
183.769357
20
175.795971
11
184.603412
21
176.729775
0
LINE
8
Image
10
184.603412
20
176.729775
11
185.782736
21
177.474490
0
LINE
8
Image
10
185.782736
20
177.474490
11
186.951076
21
177.890189
0
LINE
8
Image
10
186.951076
20
177.890189
11
188.855435
21
178.196298
0
LINE
8
Image
10
188.855435
20
178.196298
11
196.991736
21
178.714150
0
LINE
8
Image
10
196.991736
20
178.714150
11
198.240661
21
178.868577
0
LINE
8
Image
10
198.240661
20
178.868577
11
198.468718
21
179.030507
0
LINE
8
Image
10
198.468718
20
179.030507
11
198.520436
21
179.281552
0
LINE
8
Image
10
198.520436
20
179.281552
11
198.449880
21
181.468772
0
LINE
8
Image
10
198.449880
20
181.468772
11
198.402845
21
183.162102
0
LINE
8
Image
10
198.402845
20
183.162102
11
172.579000
21
183.162000
0
LINE
8
Image
10
172.579000
20
183.162000
11
146.756000
21
183.162000
0
LINE
8
Image
10
146.756000
20
183.162000
11
146.756000
21
180.933000
0
LINE
8
Image
10
146.756000
20
180.933000
11
146.756000
21
178.703000
0
LINE
8
Image
10
146.756000
20
178.703000
11
150.072110
21
178.513954
0
LINE
8
Image
10
150.072110
20
178.513954
11
152.842660
21
178.288212
0
LINE
8
Image
10
152.842660
20
178.288212
11
155.065998
21
177.881471
0
LINE
8
Image
10
155.065998
20
177.881471
11
156.863382
21
177.171916
0
LINE
8
Image
10
156.863382
20
177.171916
11
158.356065
21
176.037734
0
LINE
8
Image
10
158.356065
20
176.037734
11
159.665304
21
174.357111
0
LINE
8
Image
10
159.665304
20
174.357111
11
160.912354
21
172.008233
0
LINE
8
Image
10
160.912354
20
172.008233
11
162.218471
21
168.869285
0
LINE
8
Image
10
162.218471
20
168.869285
11
163.704910
21
164.818454
0
LINE
8
Image
10
163.704910
20
164.818454
11
166.130630
21
158.045124
0
LINE
8
Image
10
166.130630
20
158.045124
11
167.673170
21
153.670684
0
LINE
8
Image
10
167.673170
20
153.670684
11
168.504621
21
151.412904
0
LINE
8
Image
10
168.504621
20
151.412904
11
169.909791
21
147.461794
0
LINE
8
Image
10
169.909791
20
147.461794
11
172.755241
21
139.559574
0
LINE
8
Image
10
172.755241
20
139.559574
11
176.158181
21
129.964024
0
LINE
8
Image
10
176.158181
20
129.964024
11
177.252691
21
127.141804
0
LINE
8
Image
10
177.252691
20
127.141804
11
180.433432
21
126.988762
0
LINE
8
Image
10
180.433432
20
126.988762
11
187.286986
21
126.932935
0
LINE
8
Image
10
187.286986
20
126.932935
11
194.242917
21
126.977288
0
LINE
8
Image
10
194.242917
20
126.977288
11
197.730791
21
127.124786
0
LINE
8
Image
10
197.730791
20
127.124786
11
197.731000
21
127.124000
0
LINE
8
Image
10
237.453400
20
128.199340
11
240.682700
21
137.865440
0
LINE
8
Image
10
240.682700
20
137.865440
11
250.309300
21
166.633965
0
LINE
8
Image
10
250.309300
20
166.633965
11
252.188975
21
171.477881
0
LINE
8
Image
10
252.188975
20
171.477881
11
253.634100
21
174.233140
0
LINE
8
Image
10
253.634100
20
174.233140
11
254.402961
21
175.370251
0
LINE
8
Image
10
254.402961
20
175.370251
11
255.309165
21
176.298727
0
LINE
8
Image
10
255.309165
20
176.298727
11
256.420132
21
177.040523
0
LINE
8
Image
10
256.420132
20
177.040523
11
257.803281
21
177.617592
0
LINE
8
Image
10
257.803281
20
177.617592
11
259.526033
21
178.051889
0
LINE
8
Image
10
259.526033
20
178.051889
11
261.655807
21
178.365366
0
LINE
8
Image
10
261.655807
20
178.365366
11
267.406100
21
178.717680
0
LINE
8
Image
10
267.406100
20
178.717680
11
269.663880
21
178.787632
0
LINE
8
Image
10
269.663880
20
178.787632
11
269.748363
21
180.737921
0
LINE
8
Image
10
269.748363
20
180.737921
11
269.726049
21
182.281652
0
LINE
8
Image
10
269.726049
20
182.281652
11
269.466141
21
182.920821
0
LINE
8
Image
10
269.466141
20
182.920821
11
262.509271
21
183.086371
0
LINE
8
Image
10
262.509271
20
183.086371
11
246.298141
21
183.157752
0
LINE
8
Image
10
246.298141
20
183.157752
11
223.496841
21
183.162070
0
LINE
8
Image
10
223.496841
20
183.162070
11
223.579270
21
180.974851
0
LINE
8
Image
10
223.579270
20
180.974851
11
223.661696
21
178.787631
0
LINE
8
Image
10
223.661696
20
178.787631
11
231.424186
21
178.605468
0
LINE
8
Image
10
231.424186
20
178.605468
11
237.445503
21
178.377204
0
LINE
8
Image
10
237.445503
20
178.377204
11
240.455286
21
178.069207
0
LINE
8
Image
10
240.455286
20
178.069207
11
242.380606
21
177.633308
0
LINE
8
Image
10
242.380606
20
177.633308
11
243.116523
21
177.367985
0
LINE
8
Image
10
243.116523
20
177.367985
11
243.963666
21
176.844943
0
LINE
8
Image
10
243.963666
20
176.844943
11
244.829293
21
175.991651
0
LINE
8
Image
10
244.829293
20
175.991651
11
245.427363
21
174.924390
0
LINE
8
Image
10
245.427363
20
174.924390
11
245.755826
21
173.596794
0
LINE
8
Image
10
245.755826
20
173.596794
11
245.812633
21
171.962496
0
LINE
8
Image
10
245.812633
20
171.962496
11
245.595735
21
169.975129
0
LINE
8
Image
10
245.595735
20
169.975129
11
245.103081
21
167.588325
0
LINE
8
Image
10
245.103081
20
167.588325
11
243.282309
21
161.430944
0
LINE
8
Image
10
243.282309
20
161.430944
11
239.464399
21
149.718744
0
LINE
8
Image
10
239.464399
20
149.718744
11
234.794019
21
135.325444
0
LINE
8
Image
10
234.794019
20
135.325444
11
232.395449
21
127.776004
0
LINE
8
Image
10
232.395449
20
127.776004
11
232.208277
21
126.999893
0
LINE
8
Image
10
232.208277
20
126.999893
11
234.614000
21
127.000000
0
LINE
8
Image
10
234.614000
20
127.000000
11
237.020000
21
127.000000
0
LINE
8
Image
10
237.020000
20
127.000000
11
237.453400
21
128.199340
0
LINE
8
Image
10
159.243600
20
132.714890
11
159.419932
21
136.877660
0
LINE
8
Image
10
159.419932
20
136.877660
11
160.035204
21
153.640660
0
LINE
8
Image
10
160.035204
20
153.640660
11
160.302920
21
162.742320
0
LINE
8
Image
10
160.302920
20
162.742320
11
160.303000
21
166.229000
0
LINE
8
Image
10
160.303000
20
166.229000
11
158.214000
21
166.229000
0
LINE
8
Image
10
158.214000
20
166.229000
11
156.125000
21
166.229000
0
LINE
8
Image
10
156.125000
20
166.229000
11
155.936701
21
162.912890
0
LINE
8
Image
10
155.936701
20
162.912890
11
155.527046
21
157.698481
0
LINE
8
Image
10
155.527046
20
157.698481
11
154.914698
21
153.276488
0
LINE
8
Image
10
154.914698
20
153.276488
11
154.064560
21
149.570350
0
LINE
8
Image
10
154.064560
20
149.570350
11
152.941534
21
146.503502
0
LINE
8
Image
10
152.941534
20
146.503502
11
151.510523
21
143.999385
0
LINE
8
Image
10
151.510523
20
143.999385
11
149.736429
21
141.981435
0
LINE
8
Image
10
149.736429
20
141.981435
11
147.584154
21
140.373091
0
LINE
8
Image
10
147.584154
20
140.373091
11
145.018601
21
139.097790
0
LINE
8
Image
10
145.018601
20
139.097790
11
143.252121
21
138.458066
0
LINE
8
Image
10
143.252121
20
138.458066
11
141.306587
21
137.951908
0
LINE
8
Image
10
141.306587
20
137.951908
11
138.974081
21
137.564351
0
LINE
8
Image
10
138.974081
20
137.564351
11
136.046688
21
137.280433
0
LINE
8
Image
10
136.046688
20
137.280433
11
127.575572
21
136.963651
0
LINE
8
Image
10
127.575572
20
136.963651
11
114.229901
21
136.881850
0
LINE
8
Image
10
114.229901
20
136.881850
11
98.778201
21
136.877871
0
LINE
8
Image
10
98.778201
20
136.877871
11
98.778400
21
167.499000
0
LINE
8
Image
10
98.778400
20
167.499000
11
98.778400
21
198.120000
0
LINE
8
Image
10
98.778400
20
198.120000
11
120.862300
21
198.124318
0
LINE
8
Image
10
120.862300
20
198.124318
11
136.566750
21
198.195655
0
LINE
8
Image
10
136.566750
20
198.195655
11
143.312900
21
198.361249
0
LINE
8
Image
10
143.312900
20
198.361249
11
143.572819
21
199.000415
0
LINE
8
Image
10
143.572819
20
199.000415
11
143.595122
21
200.544149
0
LINE
8
Image
10
143.595122
20
200.544149
11
143.510653
21
202.494439
0
LINE
8
Image
10
143.510653
20
202.494439
11
121.144553
21
202.566694
0
LINE
8
Image
10
121.144553
20
202.566694
11
98.778453
21
202.638948
0
LINE
8
Image
10
98.778453
20
202.638948
11
98.778400
21
230.295000
0
LINE
8
Image
10
98.778400
20
230.295000
11
98.778400
21
257.951000
0
LINE
8
Image
10
98.778400
20
257.951000
11
113.524500
21
257.948178
0
LINE
8
Image
10
113.524500
20
257.948178
11
125.725162
21
257.856516
0
LINE
8
Image
10
125.725162
20
257.856516
11
131.803200
21
257.551030
0
LINE
8
Image
10
131.803200
20
257.551030
11
134.544738
21
257.149011
0
LINE
8
Image
10
134.544738
20
257.149011
11
137.091969
21
256.618323
0
LINE
8
Image
10
137.091969
20
256.618323
11
138.969170
21
256.074498
0
LINE
8
Image
10
138.969170
20
256.074498
11
139.507847
21
255.833764
0
LINE
8
Image
10
139.507847
20
255.833764
11
139.700620
21
255.633070
0
LINE
8
Image
10
139.700620
20
255.633070
11
139.773080
21
255.497493
0
LINE
8
Image
10
139.773080
20
255.497493
11
139.947310
21
255.530149
0
LINE
8
Image
10
139.947310
20
255.530149
11
140.697681
21
255.314629
0
LINE
8
Image
10
140.697681
20
255.314629
11
142.013383
21
254.487782
0
LINE
8
Image
10
142.013383
20
254.487782
11
143.444567
21
253.368345
0
LINE
8
Image
10
143.444567
20
253.368345
11
144.541380
21
252.275059
0
LINE
8
Image
10
144.541380
20
252.275059
11
145.518251
21
250.917927
0
LINE
8
Image
10
145.518251
20
250.917927
11
146.391242
21
249.417532
0
LINE
8
Image
10
146.391242
20
249.417532
11
147.159861
21
247.775363
0
LINE
8
Image
10
147.159861
20
247.775363
11
147.823619
21
245.992906
0
LINE
8
Image
10
147.823619
20
245.992906
11
148.834584
21
242.013082
0
LINE
8
Image
10
148.834584
20
242.013082
11
149.420210
21
237.489959
0
LINE
8
Image
10
149.420210
20
237.489959
11
149.910909
21
231.916079
0
LINE
8
Image
10
149.910909
20
231.916079
11
150.226433
21
228.599969
0
LINE
8
Image
10
150.226433
20
228.599969
11
152.346000
21
228.600000
0
LINE
8
Image
10
152.346000
20
228.600000
11
154.466000
21
228.600000
0
LINE
8
Image
10
154.466000
20
228.600000
11
154.277447
21
235.726110
0
LINE
8
Image
10
154.277447
20
235.726110
11
153.681002
21
255.686560
0
LINE
8
Image
10
153.681002
20
255.686560
11
153.293028
21
262.251410
0
LINE
8
Image
10
153.293028
20
262.251410
11
139.631046
21
262.383672
0
LINE
8
Image
10
139.631046
20
262.383672
11
107.088828
21
262.396980
0
LINE
8
Image
10
107.088828
20
262.396980
11
61.101628
21
262.325575
0
LINE
8
Image
10
61.101628
20
262.325575
11
61.004854
21
261.640224
0
LINE
8
Image
10
61.004854
20
261.640224
11
61.095701
21
259.452994
0
LINE
8
Image
10
61.095701
20
259.452994
11
61.283350
21
257.951124
0
LINE
8
Image
10
61.283350
20
257.951124
11
63.591390
21
257.946072
0
LINE
8
Image
10
63.591390
20
257.946072
11
66.689593
21
257.787107
0
LINE
8
Image
10
66.689593
20
257.787107
11
69.563840
21
257.348411
0
LINE
8
Image
10
69.563840
20
257.348411
11
72.039688
21
256.666519
0
LINE
8
Image
10
72.039688
20
256.666519
11
73.942690
21
255.777962
0
LINE
8
Image
10
73.942690
20
255.777962
11
74.873006
21
255.116612
0
LINE
8
Image
10
74.873006
20
255.116612
11
75.647751
21
254.382015
0
LINE
8
Image
10
75.647751
20
254.382015
11
76.282362
21
253.537455
0
LINE
8
Image
10
76.282362
20
253.537455
11
76.792277
21
252.546212
0
LINE
8
Image
10
76.792277
20
252.546212
11
77.192932
21
251.371568
0
LINE
8
Image
10
77.192932
20
251.371568
11
77.499765
21
249.976804
0
LINE
8
Image
10
77.499765
20
249.976804
11
77.893710
21
246.380042
0
LINE
8
Image
10
77.893710
20
246.380042
11
78.089491
21
229.460446
0
LINE
8
Image
10
78.089491
20
229.460446
11
78.159306
21
196.975162
0
LINE
8
Image
10
78.159306
20
196.975162
11
78.100486
21
164.638993
0
LINE
8
Image
10
78.100486
20
164.638993
11
77.910361
21
148.166742
0
LINE
8
Image
10
77.910361
20
148.166742
11
77.553418
21
145.423607
0
LINE
8
Image
10
77.553418
20
145.423607
11
76.915092
21
143.144156
0
LINE
8
Image
10
76.915092
20
143.144156
11
75.947386
21
141.288317
0
LINE
8
Image
10
75.947386
20
141.288317
11
74.602303
21
139.816021
0
LINE
8
Image
10
74.602303
20
139.816021
11
72.831846
21
138.687196
0
LINE
8
Image
10
72.831846
20
138.687196
11
70.588018
21
137.861772
0
LINE
8
Image
10
70.588018
20
137.861772
11
67.822822
21
137.299677
0
LINE
8
Image
10
67.822822
20
137.299677
11
64.488261
21
136.960842
0
LINE
8
Image
10
64.488261
20
136.960842
11
61.101601
21
136.736724
0
LINE
8
Image
10
61.101601
20
136.736724
11
61.006831
21
134.792794
0
LINE
8
Image
10
61.006831
20
134.792794
11
61.020667
21
133.241369
0
LINE
8
Image
10
61.020667
20
133.241369
11
61.289053
21
132.609894
0
LINE
8
Image
10
61.289053
20
132.609894
11
65.679697
21
132.478219
0
LINE
8
Image
10
65.679697
20
132.478219
11
76.849046
21
132.392789
0
LINE
8
Image
10
76.849046
20
132.392789
11
110.454244
21
132.350931
0
LINE
8
Image
10
110.454244
20
132.350931
11
143.965422
21
132.464845
0
LINE
8
Image
10
143.965422
20
132.464845
11
155.017245
21
132.574132
0
LINE
8
Image
10
155.017245
20
132.574132
11
159.243353
21
132.715058
0
LINE
8
Image
10
159.243353
20
132.715058
11
159.243600
21
132.714890
 0 
ENDSEC
 0 
EOF